<svg width="26" height="73" viewBox="0 0 26 73" fill="none" xmlns="http://www.w3.org/2000/svg">
<g clip-path="url(#clip0_3896_8042)">
<path d="M25.3192 59.3035L4.65927 36.5001L25.3192 13.6967C25.6891 13.2893 25.8962 12.7424 25.8962 12.1728C25.8962 11.6033 25.6891 11.0564 25.3192 10.649C25.1396 10.4517 24.9251 10.295 24.6885 10.188C24.4518 10.081 24.1977 10.0259 23.941 10.0259C23.6843 10.0259 23.4302 10.081 23.1936 10.188C22.9569 10.295 22.7425 10.4517 22.5629 10.649L0.579871 34.9078C0.193923 35.3338 -0.0220824 35.9052 -0.0220824 36.5001C-0.0220825 37.095 0.193923 37.6664 0.579871 38.0924L22.5586 62.3512C22.7384 62.5499 22.9534 62.7078 23.1908 62.8156C23.4282 62.9234 23.6833 62.979 23.941 62.979C24.1987 62.979 24.4539 62.9234 24.6913 62.8156C24.9287 62.7078 25.1437 62.5499 25.3235 62.3512C25.6933 61.9438 25.9004 61.3969 25.9004 60.8273C25.9004 60.2578 25.6933 59.7109 25.3235 59.3035L25.3192 59.3035Z" fill="#9B9B9B"/>
</g>
<defs>
<clipPath id="clip0_3896_8042">
<rect width="73" height="25.907" fill="white" transform="translate(25.9062) rotate(90)"/>
</clipPath>
</defs>
</svg>
