<svg width="26" height="73" viewBox="0 0 26 73" fill="none" xmlns="http://www.w3.org/2000/svg">
<g clip-path="url(#clip0_3896_7993)">
<path d="M0.680787 13.6965L21.3407 36.4999L0.680789 59.3033C0.310918 59.7107 0.10385 60.2576 0.10385 60.8272C0.10385 61.3967 0.310918 61.9436 0.680789 62.351C0.860436 62.5483 1.07486 62.705 1.31151 62.812C1.54816 62.919 1.80227 62.9741 2.05897 62.9741C2.31566 62.9741 2.56977 62.919 2.80642 62.812C3.04307 62.705 3.25749 62.5483 3.43714 62.351L25.4201 38.0922C25.8061 37.6662 26.0221 37.0948 26.0221 36.4999C26.0221 35.905 25.8061 35.3336 25.4201 34.9076L3.44138 10.6488C3.2616 10.4501 3.04665 10.2922 2.80921 10.1844C2.57178 10.0766 2.31668 10.021 2.05896 10.021C1.80125 10.021 1.54615 10.0766 1.30871 10.1844C1.07128 10.2922 0.856327 10.4501 0.676545 10.6488C0.306674 11.0562 0.0996073 11.6031 0.0996074 12.1727C0.0996074 12.7422 0.306674 13.2891 0.676545 13.6965L0.680787 13.6965Z" fill="#9B9B9B"/>
</g>
<defs>
<clipPath id="clip0_3896_7993">
<rect width="73" height="25.907" fill="white" transform="translate(0.09375 73) rotate(-90)"/>
</clipPath>
</defs>
</svg>
