<svg width="1440" height="262" viewBox="0 0 1440 262" fill="none" xmlns="http://www.w3.org/2000/svg">
<rect x="-2" y="66" width="1444" height="134" fill="url(#paint0_linear_3909_8143)"/>
<g filter="url(#filter0_d_3909_8143)">
<rect x="827" y="21" width="446" height="217" rx="51" fill="url(#paint1_linear_3909_8143)"/>
</g>
<g filter="url(#filter1_d_3909_8143)">
<rect x="568" y="21" width="425" height="217" rx="51" fill="url(#paint2_linear_3909_8143)"/>
</g>
<g filter="url(#filter2_d_3909_8143)">
<rect x="300" y="21" width="413" height="217" rx="51" fill="url(#paint3_linear_3909_8143)"/>
</g>
<g filter="url(#filter3_d_3909_8143)">
<rect x="167" y="21" width="285" height="217" rx="51" fill="url(#paint4_linear_3909_8143)"/>
</g>
<path d="M261.78 124.024C258.708 124.024 255.593 123.683 252.436 123C249.279 122.317 246.505 121.315 244.116 119.992L249.236 108.856C251.156 109.965 253.161 110.797 255.252 111.352C257.385 111.864 259.391 112.12 261.268 112.12C262.975 112.12 264.361 111.843 265.428 111.288C266.537 110.691 267.092 109.816 267.092 108.664C267.092 107.683 266.687 106.936 265.876 106.424C265.065 105.869 263.7 105.592 261.78 105.592H255.828V96.312L267.412 84.536L268.756 89.592H246.42V78.2H279.828V87.48L268.244 99.256L261.012 95.16H264.98C270.612 95.16 274.9 96.4187 277.844 98.936C280.788 101.453 282.26 104.696 282.26 108.664C282.26 111.224 281.535 113.677 280.084 116.024C278.676 118.371 276.457 120.291 273.428 121.784C270.441 123.277 266.559 124.024 261.78 124.024ZM305.957 124.024C301.989 124.024 298.469 123.107 295.397 121.272C292.367 119.437 289.978 116.771 288.229 113.272C286.522 109.773 285.669 105.549 285.669 100.6C285.669 95.6507 286.522 91.4267 288.229 87.928C289.978 84.4293 292.367 81.7627 295.397 79.928C298.469 78.0933 301.989 77.176 305.957 77.176C309.925 77.176 313.423 78.0933 316.453 79.928C319.525 81.7627 321.914 84.4293 323.621 87.928C325.37 91.4267 326.245 95.6507 326.245 100.6C326.245 105.549 325.37 109.773 323.621 113.272C321.914 116.771 319.525 119.437 316.453 121.272C313.423 123.107 309.925 124.024 305.957 124.024ZM305.957 111.928C306.938 111.928 307.813 111.587 308.581 110.904C309.349 110.221 309.946 109.048 310.373 107.384C310.842 105.72 311.077 103.459 311.077 100.6C311.077 97.6987 310.842 95.4373 310.373 93.816C309.946 92.152 309.349 90.9787 308.581 90.296C307.813 89.6133 306.938 89.272 305.957 89.272C304.975 89.272 304.101 89.6133 303.333 90.296C302.565 90.9787 301.946 92.152 301.477 93.816C301.05 95.4373 300.837 97.6987 300.837 100.6C300.837 103.459 301.05 105.72 301.477 107.384C301.946 109.048 302.565 110.221 303.333 110.904C304.101 111.587 304.975 111.928 305.957 111.928ZM342.205 116.28V84.92H353.725V116.28H342.205ZM331.645 106.04V95.16H364.285V106.04H331.645Z" fill="white"/>
<path d="M209.016 178V165.184H212.016V170.392H218.472V165.184H221.472V178H218.472V172.936H212.016V178H209.016ZM233.269 178V175.408L233.101 174.856V170.32C233.101 169.44 232.837 168.76 232.309 168.28C231.781 167.784 230.981 167.536 229.909 167.536C229.189 167.536 228.477 167.648 227.773 167.872C227.085 168.096 226.501 168.408 226.021 168.808L224.845 166.624C225.533 166.096 226.349 165.704 227.293 165.448C228.253 165.176 229.245 165.04 230.269 165.04C232.125 165.04 233.557 165.488 234.565 166.384C235.589 167.264 236.101 168.632 236.101 170.488V178H233.269ZM229.237 178.168C228.277 178.168 227.437 178.008 226.717 177.688C225.997 177.352 225.437 176.896 225.037 176.32C224.653 175.728 224.461 175.064 224.461 174.328C224.461 173.608 224.629 172.96 224.965 172.384C225.317 171.808 225.885 171.352 226.669 171.016C227.453 170.68 228.493 170.512 229.789 170.512H233.509V172.504H230.005C228.981 172.504 228.293 172.672 227.941 173.008C227.589 173.328 227.413 173.728 227.413 174.208C227.413 174.752 227.629 175.184 228.061 175.504C228.493 175.824 229.093 175.984 229.861 175.984C230.597 175.984 231.253 175.816 231.829 175.48C232.421 175.144 232.845 174.648 233.101 173.992L233.605 175.792C233.317 176.544 232.797 177.128 232.045 177.544C231.309 177.96 230.373 178.168 229.237 178.168ZM245.645 178.168C244.301 178.168 243.101 177.888 242.045 177.328C241.005 176.752 240.189 175.968 239.597 174.976C239.005 173.984 238.709 172.856 238.709 171.592C238.709 170.312 239.005 169.184 239.597 168.208C240.189 167.216 241.005 166.44 242.045 165.88C243.101 165.32 244.301 165.04 245.645 165.04C246.893 165.04 247.989 165.296 248.933 165.808C249.893 166.304 250.621 167.04 251.117 168.016L248.813 169.36C248.429 168.752 247.957 168.304 247.397 168.016C246.853 167.728 246.261 167.584 245.621 167.584C244.885 167.584 244.221 167.744 243.629 168.064C243.037 168.384 242.573 168.848 242.237 169.456C241.901 170.048 241.733 170.76 241.733 171.592C241.733 172.424 241.901 173.144 242.237 173.752C242.573 174.344 243.037 174.8 243.629 175.12C244.221 175.44 244.885 175.6 245.621 175.6C246.261 175.6 246.853 175.456 247.397 175.168C247.957 174.88 248.429 174.432 248.813 173.824L251.117 175.168C250.621 176.128 249.893 176.872 248.933 177.4C247.989 177.912 246.893 178.168 245.645 178.168ZM256.328 178V167.008L257.024 167.728H251.816V165.184H263.816V167.728H258.632L259.328 167.008V178H256.328ZM273.769 178V175.408L273.601 174.856V170.32C273.601 169.44 273.337 168.76 272.809 168.28C272.281 167.784 271.481 167.536 270.409 167.536C269.689 167.536 268.977 167.648 268.273 167.872C267.585 168.096 267.001 168.408 266.521 168.808L265.345 166.624C266.033 166.096 266.849 165.704 267.793 165.448C268.753 165.176 269.745 165.04 270.769 165.04C272.625 165.04 274.057 165.488 275.065 166.384C276.089 167.264 276.601 168.632 276.601 170.488V178H273.769ZM269.737 178.168C268.777 178.168 267.937 178.008 267.217 177.688C266.497 177.352 265.937 176.896 265.537 176.32C265.153 175.728 264.961 175.064 264.961 174.328C264.961 173.608 265.129 172.96 265.465 172.384C265.817 171.808 266.385 171.352 267.169 171.016C267.953 170.68 268.993 170.512 270.289 170.512H274.009V172.504H270.505C269.481 172.504 268.793 172.672 268.441 173.008C268.089 173.328 267.913 173.728 267.913 174.208C267.913 174.752 268.129 175.184 268.561 175.504C268.993 175.824 269.593 175.984 270.361 175.984C271.097 175.984 271.753 175.816 272.329 175.48C272.921 175.144 273.345 174.648 273.601 173.992L274.105 175.792C273.817 176.544 273.297 177.128 272.545 177.544C271.809 177.96 270.873 178.168 269.737 178.168ZM280.313 178V165.184H283.313V170.392H289.769V165.184H292.769V178H289.769V172.936H283.313V178H280.313ZM296.789 178V165.184H299.789V173.632L306.869 165.184H309.605V178H306.605V169.552L299.549 178H296.789ZM329.058 176.608V167.728H324.138L324.066 169.792C324.034 170.528 323.986 171.24 323.922 171.928C323.858 172.6 323.754 173.224 323.61 173.8C323.466 174.36 323.258 174.824 322.986 175.192C322.714 175.56 322.354 175.8 321.906 175.912L318.93 175.456C319.41 175.456 319.794 175.304 320.082 175C320.386 174.68 320.618 174.248 320.778 173.704C320.954 173.144 321.082 172.512 321.162 171.808C321.242 171.088 321.298 170.344 321.33 169.576L321.498 165.184H332.058V176.608H329.058ZM318.474 180.856V175.456H333.954V180.856H331.146V178H321.258V180.856H318.474ZM342.345 178.168C341.033 178.168 339.865 177.888 338.841 177.328C337.817 176.752 337.009 175.968 336.417 174.976C335.825 173.984 335.529 172.856 335.529 171.592C335.529 170.312 335.825 169.184 336.417 168.208C337.009 167.216 337.817 166.44 338.841 165.88C339.865 165.32 341.033 165.04 342.345 165.04C343.673 165.04 344.849 165.32 345.873 165.88C346.913 166.44 347.721 167.208 348.297 168.184C348.889 169.16 349.185 170.296 349.185 171.592C349.185 172.856 348.889 173.984 348.297 174.976C347.721 175.968 346.913 176.752 345.873 177.328C344.849 177.888 343.673 178.168 342.345 178.168ZM342.345 175.6C343.081 175.6 343.737 175.44 344.313 175.12C344.889 174.8 345.337 174.336 345.657 173.728C345.993 173.12 346.161 172.408 346.161 171.592C346.161 170.76 345.993 170.048 345.657 169.456C345.337 168.848 344.889 168.384 344.313 168.064C343.737 167.744 343.089 167.584 342.369 167.584C341.633 167.584 340.977 167.744 340.401 168.064C339.841 168.384 339.393 168.848 339.057 169.456C338.721 170.048 338.553 170.76 338.553 171.592C338.553 172.408 338.721 173.12 339.057 173.728C339.393 174.336 339.841 174.8 340.401 175.12C340.977 175.44 341.625 175.6 342.345 175.6ZM357.981 178.168C356.637 178.168 355.437 177.888 354.381 177.328C353.341 176.752 352.525 175.968 351.933 174.976C351.341 173.984 351.045 172.856 351.045 171.592C351.045 170.312 351.341 169.184 351.933 168.208C352.525 167.216 353.341 166.44 354.381 165.88C355.437 165.32 356.637 165.04 357.981 165.04C359.229 165.04 360.325 165.296 361.269 165.808C362.229 166.304 362.957 167.04 363.453 168.016L361.149 169.36C360.765 168.752 360.293 168.304 359.733 168.016C359.189 167.728 358.597 167.584 357.957 167.584C357.221 167.584 356.557 167.744 355.965 168.064C355.373 168.384 354.909 168.848 354.573 169.456C354.237 170.048 354.069 170.76 354.069 171.592C354.069 172.424 354.237 173.144 354.573 173.752C354.909 174.344 355.373 174.8 355.965 175.12C356.557 175.44 357.221 175.6 357.957 175.6C358.597 175.6 359.189 175.456 359.733 175.168C360.293 174.88 360.765 174.432 361.149 173.824L363.453 175.168C362.957 176.128 362.229 176.872 361.269 177.4C360.325 177.912 359.229 178.168 357.981 178.168ZM371.883 178.168C370.459 178.168 369.211 177.888 368.139 177.328C367.083 176.752 366.259 175.968 365.667 174.976C365.091 173.984 364.803 172.856 364.803 171.592C364.803 170.312 365.083 169.184 365.643 168.208C366.219 167.216 367.003 166.44 367.995 165.88C369.003 165.32 370.147 165.04 371.427 165.04C372.675 165.04 373.787 165.312 374.763 165.856C375.739 166.4 376.507 167.168 377.067 168.16C377.627 169.152 377.907 170.32 377.907 171.664C377.907 171.792 377.899 171.936 377.883 172.096C377.883 172.256 377.875 172.408 377.859 172.552H367.179V170.56H376.275L375.099 171.184C375.115 170.448 374.963 169.8 374.643 169.24C374.323 168.68 373.883 168.24 373.323 167.92C372.779 167.6 372.147 167.44 371.427 167.44C370.691 167.44 370.043 167.6 369.483 167.92C368.939 168.24 368.507 168.688 368.187 169.264C367.883 169.824 367.731 170.488 367.731 171.256V171.736C367.731 172.504 367.907 173.184 368.259 173.776C368.611 174.368 369.107 174.824 369.747 175.144C370.387 175.464 371.123 175.624 371.955 175.624C372.675 175.624 373.323 175.512 373.899 175.288C374.475 175.064 374.987 174.712 375.435 174.232L377.043 176.08C376.467 176.752 375.739 177.272 374.859 177.64C373.995 177.992 373.003 178.168 371.883 178.168ZM381.188 178V165.184H391.028V167.728H383.492L384.188 167.056V178H381.188ZM400.987 178V175.408L400.819 174.856V170.32C400.819 169.44 400.555 168.76 400.027 168.28C399.499 167.784 398.699 167.536 397.627 167.536C396.907 167.536 396.195 167.648 395.491 167.872C394.803 168.096 394.219 168.408 393.739 168.808L392.563 166.624C393.251 166.096 394.067 165.704 395.011 165.448C395.971 165.176 396.963 165.04 397.987 165.04C399.843 165.04 401.275 165.488 402.283 166.384C403.307 167.264 403.819 168.632 403.819 170.488V178H400.987ZM396.955 178.168C395.995 178.168 395.155 178.008 394.435 177.688C393.715 177.352 393.155 176.896 392.755 176.32C392.371 175.728 392.179 175.064 392.179 174.328C392.179 173.608 392.347 172.96 392.683 172.384C393.035 171.808 393.603 171.352 394.387 171.016C395.171 170.68 396.211 170.512 397.507 170.512H401.227V172.504H397.723C396.699 172.504 396.011 172.672 395.659 173.008C395.307 173.328 395.131 173.728 395.131 174.208C395.131 174.752 395.347 175.184 395.779 175.504C396.211 175.824 396.811 175.984 397.579 175.984C398.315 175.984 398.971 175.816 399.547 175.48C400.139 175.144 400.563 174.648 400.819 173.992L401.323 175.792C401.035 176.544 400.515 177.128 399.763 177.544C399.027 177.96 398.091 178.168 396.955 178.168Z" fill="white"/>
<path d="M555.256 123L572.152 83.576L576.184 89.912H554.936L560.824 83.064V96.44H548.344V78.2H586.68V87.48L571.768 123H555.256Z" fill="white"/>
<path d="M493.016 178V165.184H502.856V167.728H495.32L496.016 167.056V178H493.016ZM512.143 178.168C511.103 178.168 510.151 177.928 509.287 177.448C508.439 176.968 507.759 176.248 507.247 175.288C506.751 174.312 506.503 173.08 506.503 171.592C506.503 170.088 506.743 168.856 507.223 167.896C507.719 166.936 508.391 166.224 509.239 165.76C510.087 165.28 511.055 165.04 512.143 165.04C513.407 165.04 514.519 165.312 515.479 165.856C516.455 166.4 517.223 167.16 517.783 168.136C518.359 169.112 518.647 170.264 518.647 171.592C518.647 172.92 518.359 174.08 517.783 175.072C517.223 176.048 516.455 176.808 515.479 177.352C514.519 177.896 513.407 178.168 512.143 178.168ZM505.039 182.656V165.184H507.895V168.208L507.799 171.616L508.039 175.024V182.656H505.039ZM511.807 175.6C512.527 175.6 513.167 175.44 513.727 175.12C514.303 174.8 514.759 174.336 515.095 173.728C515.431 173.12 515.599 172.408 515.599 171.592C515.599 170.76 515.431 170.048 515.095 169.456C514.759 168.848 514.303 168.384 513.727 168.064C513.167 167.744 512.527 167.584 511.807 167.584C511.087 167.584 510.439 167.744 509.863 168.064C509.287 168.384 508.831 168.848 508.495 169.456C508.159 170.048 507.991 170.76 507.991 171.592C507.991 172.408 508.159 173.12 508.495 173.728C508.831 174.336 509.287 174.8 509.863 175.12C510.439 175.44 511.087 175.6 511.807 175.6ZM529.245 178V175.408L529.077 174.856V170.32C529.077 169.44 528.813 168.76 528.285 168.28C527.757 167.784 526.957 167.536 525.885 167.536C525.165 167.536 524.453 167.648 523.749 167.872C523.061 168.096 522.477 168.408 521.997 168.808L520.821 166.624C521.509 166.096 522.325 165.704 523.269 165.448C524.229 165.176 525.221 165.04 526.245 165.04C528.101 165.04 529.533 165.488 530.541 166.384C531.565 167.264 532.077 168.632 532.077 170.488V178H529.245ZM525.213 178.168C524.253 178.168 523.413 178.008 522.693 177.688C521.973 177.352 521.413 176.896 521.013 176.32C520.629 175.728 520.437 175.064 520.437 174.328C520.437 173.608 520.605 172.96 520.941 172.384C521.293 171.808 521.861 171.352 522.645 171.016C523.429 170.68 524.469 170.512 525.765 170.512H529.485V172.504H525.981C524.957 172.504 524.269 172.672 523.917 173.008C523.565 173.328 523.389 173.728 523.389 174.208C523.389 174.752 523.605 175.184 524.037 175.504C524.469 175.824 525.069 175.984 525.837 175.984C526.573 175.984 527.229 175.816 527.805 175.48C528.397 175.144 528.821 174.648 529.077 173.992L529.581 175.792C529.293 176.544 528.773 177.128 528.021 177.544C527.285 177.96 526.349 178.168 525.213 178.168ZM544.573 176.608V167.728H539.653L539.581 169.792C539.549 170.528 539.501 171.24 539.437 171.928C539.373 172.6 539.269 173.224 539.125 173.8C538.981 174.36 538.773 174.824 538.501 175.192C538.229 175.56 537.869 175.8 537.421 175.912L534.445 175.456C534.925 175.456 535.309 175.304 535.597 175C535.901 174.68 536.133 174.248 536.293 173.704C536.469 173.144 536.597 172.512 536.677 171.808C536.757 171.088 536.813 170.344 536.845 169.576L537.013 165.184H547.573V176.608H544.573ZM533.989 180.856V175.456H549.469V180.856H546.661V178H536.773V180.856H533.989ZM557.861 178.168C556.549 178.168 555.381 177.888 554.357 177.328C553.333 176.752 552.525 175.968 551.933 174.976C551.341 173.984 551.045 172.856 551.045 171.592C551.045 170.312 551.341 169.184 551.933 168.208C552.525 167.216 553.333 166.44 554.357 165.88C555.381 165.32 556.549 165.04 557.861 165.04C559.189 165.04 560.365 165.32 561.389 165.88C562.429 166.44 563.237 167.208 563.813 168.184C564.405 169.16 564.701 170.296 564.701 171.592C564.701 172.856 564.405 173.984 563.813 174.976C563.237 175.968 562.429 176.752 561.389 177.328C560.365 177.888 559.189 178.168 557.861 178.168ZM557.861 175.6C558.597 175.6 559.253 175.44 559.829 175.12C560.405 174.8 560.853 174.336 561.173 173.728C561.509 173.12 561.677 172.408 561.677 171.592C561.677 170.76 561.509 170.048 561.173 169.456C560.853 168.848 560.405 168.384 559.829 168.064C559.253 167.744 558.605 167.584 557.885 167.584C557.149 167.584 556.493 167.744 555.917 168.064C555.357 168.384 554.909 168.848 554.573 169.456C554.237 170.048 554.069 170.76 554.069 171.592C554.069 172.408 554.237 173.12 554.573 173.728C554.909 174.336 555.357 174.8 555.917 175.12C556.493 175.44 557.141 175.6 557.861 175.6ZM567.664 178V165.184H573.928C575.48 165.184 576.696 165.472 577.576 166.048C578.472 166.624 578.92 167.44 578.92 168.496C578.92 169.536 578.504 170.352 577.672 170.944C576.84 171.52 575.736 171.808 574.36 171.808L574.72 171.064C576.272 171.064 577.424 171.352 578.176 171.928C578.944 172.488 579.328 173.312 579.328 174.4C579.328 175.536 578.904 176.424 578.056 177.064C577.208 177.688 575.92 178 574.192 178H567.664ZM570.52 175.816H573.952C574.768 175.816 575.384 175.688 575.8 175.432C576.216 175.16 576.424 174.752 576.424 174.208C576.424 173.632 576.232 173.208 575.848 172.936C575.464 172.664 574.864 172.528 574.048 172.528H570.52V175.816ZM570.52 170.536H573.664C574.432 170.536 575.008 170.4 575.392 170.128C575.792 169.84 575.992 169.44 575.992 168.928C575.992 168.4 575.792 168.008 575.392 167.752C575.008 167.496 574.432 167.368 573.664 167.368H570.52V170.536ZM582.524 178V165.184H585.524V173.632L592.604 165.184H595.34V178H592.34V169.552L585.284 178H582.524ZM606.008 178V165.184H612.272C613.824 165.184 615.04 165.472 615.92 166.048C616.816 166.624 617.264 167.44 617.264 168.496C617.264 169.536 616.848 170.352 616.016 170.944C615.184 171.52 614.08 171.808 612.704 171.808L613.064 171.064C614.616 171.064 615.768 171.352 616.52 171.928C617.288 172.488 617.672 173.312 617.672 174.4C617.672 175.536 617.248 176.424 616.4 177.064C615.552 177.688 614.264 178 612.536 178H606.008ZM608.864 175.816H612.296C613.112 175.816 613.728 175.688 614.144 175.432C614.56 175.16 614.768 174.752 614.768 174.208C614.768 173.632 614.576 173.208 614.192 172.936C613.808 172.664 613.208 172.528 612.392 172.528H608.864V175.816ZM608.864 170.536H612.008C612.776 170.536 613.352 170.4 613.736 170.128C614.136 169.84 614.336 169.44 614.336 168.928C614.336 168.4 614.136 168.008 613.736 167.752C613.352 167.496 612.776 167.368 612.008 167.368H608.864V170.536ZM626.58 178.168C625.268 178.168 624.1 177.888 623.076 177.328C622.052 176.752 621.244 175.968 620.652 174.976C620.06 173.984 619.764 172.856 619.764 171.592C619.764 170.312 620.06 169.184 620.652 168.208C621.244 167.216 622.052 166.44 623.076 165.88C624.1 165.32 625.268 165.04 626.58 165.04C627.908 165.04 629.084 165.32 630.108 165.88C631.148 166.44 631.956 167.208 632.532 168.184C633.124 169.16 633.42 170.296 633.42 171.592C633.42 172.856 633.124 173.984 632.532 174.976C631.956 175.968 631.148 176.752 630.108 177.328C629.084 177.888 627.908 178.168 626.58 178.168ZM626.58 175.6C627.316 175.6 627.972 175.44 628.548 175.12C629.124 174.8 629.572 174.336 629.892 173.728C630.228 173.12 630.396 172.408 630.396 171.592C630.396 170.76 630.228 170.048 629.892 169.456C629.572 168.848 629.124 168.384 628.548 168.064C627.972 167.744 627.324 167.584 626.604 167.584C625.868 167.584 625.212 167.744 624.636 168.064C624.076 168.384 623.628 168.848 623.292 169.456C622.956 170.048 622.788 170.76 622.788 171.592C622.788 172.408 622.956 173.12 623.292 173.728C623.628 174.336 624.076 174.8 624.636 175.12C625.212 175.44 625.86 175.6 626.58 175.6ZM493.376 207V190.2H495.92L503.288 202.464H501.92L509.168 190.2H511.712L511.76 207H508.784L508.76 194.832H509.384L503.24 205.08H501.848L495.608 194.832H496.328V207H493.376ZM523.901 207V204.408L523.733 203.856V199.32C523.733 198.44 523.469 197.76 522.941 197.28C522.413 196.784 521.613 196.536 520.541 196.536C519.821 196.536 519.109 196.648 518.405 196.872C517.717 197.096 517.133 197.408 516.653 197.808L515.477 195.624C516.165 195.096 516.981 194.704 517.925 194.448C518.885 194.176 519.877 194.04 520.901 194.04C522.757 194.04 524.189 194.488 525.197 195.384C526.221 196.264 526.733 197.632 526.733 199.488V207H523.901ZM519.869 207.168C518.909 207.168 518.069 207.008 517.349 206.688C516.629 206.352 516.069 205.896 515.669 205.32C515.285 204.728 515.093 204.064 515.093 203.328C515.093 202.608 515.261 201.96 515.597 201.384C515.949 200.808 516.517 200.352 517.301 200.016C518.085 199.68 519.125 199.512 520.421 199.512H524.141V201.504H520.637C519.613 201.504 518.925 201.672 518.573 202.008C518.221 202.328 518.045 202.728 518.045 203.208C518.045 203.752 518.261 204.184 518.693 204.504C519.125 204.824 519.725 204.984 520.493 204.984C521.229 204.984 521.885 204.816 522.461 204.48C523.053 204.144 523.477 203.648 523.733 202.992L524.237 204.792C523.949 205.544 523.429 206.128 522.677 206.544C521.941 206.96 521.005 207.168 519.869 207.168ZM539.638 207L535.006 200.856L537.454 199.344L543.166 207H539.638ZM530.446 207V194.184H533.446V207H530.446ZM532.558 201.864V199.368H536.902V201.864H532.558ZM537.742 200.952L534.934 200.616L539.638 194.184H542.854L537.742 200.952ZM550.836 207.168C549.412 207.168 548.164 206.888 547.092 206.328C546.036 205.752 545.212 204.968 544.62 203.976C544.044 202.984 543.756 201.856 543.756 200.592C543.756 199.312 544.036 198.184 544.596 197.208C545.172 196.216 545.956 195.44 546.948 194.88C547.956 194.32 549.1 194.04 550.38 194.04C551.628 194.04 552.74 194.312 553.716 194.856C554.692 195.4 555.46 196.168 556.02 197.16C556.58 198.152 556.86 199.32 556.86 200.664C556.86 200.792 556.852 200.936 556.836 201.096C556.836 201.256 556.828 201.408 556.812 201.552H546.132V199.56H555.228L554.052 200.184C554.068 199.448 553.916 198.8 553.596 198.24C553.276 197.68 552.836 197.24 552.276 196.92C551.732 196.6 551.1 196.44 550.38 196.44C549.644 196.44 548.996 196.6 548.436 196.92C547.892 197.24 547.46 197.688 547.14 198.264C546.836 198.824 546.684 199.488 546.684 200.256V200.736C546.684 201.504 546.86 202.184 547.212 202.776C547.564 203.368 548.06 203.824 548.7 204.144C549.34 204.464 550.076 204.624 550.908 204.624C551.628 204.624 552.276 204.512 552.852 204.288C553.428 204.064 553.94 203.712 554.388 203.232L555.996 205.08C555.42 205.752 554.692 206.272 553.812 206.64C552.948 206.992 551.956 207.168 550.836 207.168ZM568.761 205.608V196.728H563.841L563.769 198.792C563.737 199.528 563.689 200.24 563.625 200.928C563.561 201.6 563.457 202.224 563.313 202.8C563.169 203.36 562.961 203.824 562.689 204.192C562.417 204.56 562.057 204.8 561.609 204.912L558.633 204.456C559.113 204.456 559.497 204.304 559.785 204C560.089 203.68 560.321 203.248 560.481 202.704C560.657 202.144 560.785 201.512 560.865 200.808C560.945 200.088 561.001 199.344 561.033 198.576L561.201 194.184H571.761V205.608H568.761ZM558.177 209.856V204.456H573.657V209.856H570.849V207H560.961V209.856H558.177ZM582.048 207.168C580.736 207.168 579.568 206.888 578.544 206.328C577.52 205.752 576.712 204.968 576.12 203.976C575.528 202.984 575.232 201.856 575.232 200.592C575.232 199.312 575.528 198.184 576.12 197.208C576.712 196.216 577.52 195.44 578.544 194.88C579.568 194.32 580.736 194.04 582.048 194.04C583.376 194.04 584.552 194.32 585.576 194.88C586.616 195.44 587.424 196.208 588 197.184C588.592 198.16 588.888 199.296 588.888 200.592C588.888 201.856 588.592 202.984 588 203.976C587.424 204.968 586.616 205.752 585.576 206.328C584.552 206.888 583.376 207.168 582.048 207.168ZM582.048 204.6C582.784 204.6 583.44 204.44 584.016 204.12C584.592 203.8 585.04 203.336 585.36 202.728C585.696 202.12 585.864 201.408 585.864 200.592C585.864 199.76 585.696 199.048 585.36 198.456C585.04 197.848 584.592 197.384 584.016 197.064C583.44 196.744 582.792 196.584 582.072 196.584C581.336 196.584 580.68 196.744 580.104 197.064C579.544 197.384 579.096 197.848 578.76 198.456C578.424 199.048 578.256 199.76 578.256 200.592C578.256 201.408 578.424 202.12 578.76 202.728C579.096 203.336 579.544 203.8 580.104 204.12C580.68 204.44 581.328 204.6 582.048 204.6ZM591.852 207V194.184H594.852V199.392H601.308V194.184H604.308V207H601.308V201.936H594.852V207H591.852ZM608.329 207V194.184H611.329V202.632L618.409 194.184H621.145V207H618.145V198.552L611.089 207H608.329ZM623.764 211.824C623.204 211.824 622.676 211.76 622.18 211.632C621.668 211.52 621.236 211.336 620.884 211.08L621.748 208.848C622.212 209.184 622.796 209.352 623.5 209.352C624.044 209.352 624.468 209.176 624.772 208.824C625.076 208.488 625.228 207.984 625.228 207.312V194.184H628.228V207.24C628.228 208.648 627.836 209.76 627.052 210.576C626.284 211.408 625.188 211.824 623.764 211.824ZM626.716 192.072C626.156 192.072 625.692 191.896 625.324 191.544C624.972 191.192 624.796 190.768 624.796 190.272C624.796 189.76 624.972 189.336 625.324 189C625.692 188.648 626.156 188.472 626.716 188.472C627.276 188.472 627.732 188.64 628.084 188.976C628.452 189.296 628.636 189.704 628.636 190.2C628.636 190.728 628.46 191.176 628.108 191.544C627.756 191.896 627.292 192.072 626.716 192.072ZM640.034 207V204.408L639.866 203.856V199.32C639.866 198.44 639.602 197.76 639.074 197.28C638.546 196.784 637.746 196.536 636.674 196.536C635.954 196.536 635.242 196.648 634.538 196.872C633.85 197.096 633.266 197.408 632.786 197.808L631.61 195.624C632.298 195.096 633.114 194.704 634.058 194.448C635.018 194.176 636.01 194.04 637.034 194.04C638.89 194.04 640.322 194.488 641.33 195.384C642.354 196.264 642.866 197.632 642.866 199.488V207H640.034ZM636.002 207.168C635.042 207.168 634.202 207.008 633.482 206.688C632.762 206.352 632.202 205.896 631.802 205.32C631.418 204.728 631.226 204.064 631.226 203.328C631.226 202.608 631.394 201.96 631.73 201.384C632.082 200.808 632.65 200.352 633.434 200.016C634.218 199.68 635.258 199.512 636.554 199.512H640.274V201.504H636.77C635.746 201.504 635.058 201.672 634.706 202.008C634.354 202.328 634.178 202.728 634.178 203.208C634.178 203.752 634.394 204.184 634.826 204.504C635.258 204.824 635.858 204.984 636.626 204.984C637.362 204.984 638.018 204.816 638.594 204.48C639.186 204.144 639.61 203.648 639.866 202.992L640.37 204.792C640.082 205.544 639.562 206.128 638.81 206.544C638.074 206.96 637.138 207.168 636.002 207.168Z" fill="white"/>
<path d="M801.984 124.024C798.912 124.024 795.797 123.683 792.64 123C789.483 122.317 786.709 121.315 784.32 119.992L789.44 108.856C791.36 109.965 793.365 110.797 795.456 111.352C797.547 111.864 799.531 112.12 801.408 112.12C803.115 112.12 804.523 111.821 805.632 111.224C806.741 110.627 807.296 109.752 807.296 108.6C807.296 107.96 807.104 107.405 806.72 106.936C806.336 106.424 805.653 106.04 804.672 105.784C803.733 105.528 802.347 105.4 800.512 105.4H787.52L789.76 78.2H819.52V89.592H795.072L802.688 83.128L801.344 100.472L793.728 94.008H804.16C808.597 94.008 812.139 94.648 814.784 95.928C817.472 97.208 819.413 98.936 820.608 101.112C821.845 103.245 822.464 105.635 822.464 108.28C822.464 110.925 821.739 113.464 820.288 115.896C818.88 118.285 816.661 120.248 813.632 121.784C810.645 123.277 806.763 124.024 801.984 124.024ZM845.769 124.024C841.801 124.024 838.281 123.107 835.209 121.272C832.18 119.437 829.79 116.771 828.041 113.272C826.334 109.773 825.481 105.549 825.481 100.6C825.481 95.6507 826.334 91.4267 828.041 87.928C829.79 84.4293 832.18 81.7627 835.209 79.928C838.281 78.0933 841.801 77.176 845.769 77.176C849.737 77.176 853.236 78.0933 856.265 79.928C859.337 81.7627 861.726 84.4293 863.433 87.928C865.182 91.4267 866.057 95.6507 866.057 100.6C866.057 105.549 865.182 109.773 863.433 113.272C861.726 116.771 859.337 119.437 856.265 121.272C853.236 123.107 849.737 124.024 845.769 124.024ZM845.769 111.928C846.75 111.928 847.625 111.587 848.393 110.904C849.161 110.221 849.758 109.048 850.185 107.384C850.654 105.72 850.889 103.459 850.889 100.6C850.889 97.6987 850.654 95.4373 850.185 93.816C849.758 92.152 849.161 90.9787 848.393 90.296C847.625 89.6133 846.75 89.272 845.769 89.272C844.788 89.272 843.913 89.6133 843.145 90.296C842.377 90.9787 841.758 92.152 841.289 93.816C840.862 95.4373 840.649 97.6987 840.649 100.6C840.649 103.459 840.862 105.72 841.289 107.384C841.758 109.048 842.377 110.221 843.145 110.904C843.913 111.587 844.788 111.928 845.769 111.928ZM882.018 116.28V84.92H893.538V116.28H882.018ZM871.458 106.04V95.16H904.097V106.04H871.458Z" fill="white"/>
<path d="M798.348 178.168C797.004 178.168 795.804 177.888 794.748 177.328C793.708 176.752 792.892 175.968 792.3 174.976C791.708 173.984 791.412 172.856 791.412 171.592C791.412 170.312 791.708 169.184 792.3 168.208C792.892 167.216 793.708 166.44 794.748 165.88C795.804 165.32 797.004 165.04 798.348 165.04C799.596 165.04 800.692 165.296 801.636 165.808C802.596 166.304 803.324 167.04 803.82 168.016L801.516 169.36C801.132 168.752 800.66 168.304 800.1 168.016C799.556 167.728 798.964 167.584 798.324 167.584C797.588 167.584 796.924 167.744 796.332 168.064C795.74 168.384 795.276 168.848 794.94 169.456C794.604 170.048 794.436 170.76 794.436 171.592C794.436 172.424 794.604 173.144 794.94 173.752C795.276 174.344 795.74 174.8 796.332 175.12C796.924 175.44 797.588 175.6 798.324 175.6C798.964 175.6 799.556 175.456 800.1 175.168C800.66 174.88 801.132 174.432 801.516 173.824L803.82 175.168C803.324 176.128 802.596 176.872 801.636 177.4C800.692 177.912 799.596 178.168 798.348 178.168ZM806.461 178V165.184H818.749V178H815.773V167.032L816.469 167.728H808.765L809.461 167.032V178H806.461ZM822.797 178V165.184H825.797V173.632L832.877 165.184H835.613V178H832.613V169.552L825.557 178H822.797ZM848.841 178L844.209 171.856L846.657 170.344L852.369 178H848.841ZM839.649 178V165.184H842.649V178H839.649ZM841.761 172.864V170.368H846.105V172.864H841.761ZM846.945 171.952L844.137 171.616L848.841 165.184H852.057L846.945 171.952ZM860.039 178.168C858.615 178.168 857.367 177.888 856.295 177.328C855.239 176.752 854.415 175.968 853.823 174.976C853.247 173.984 852.959 172.856 852.959 171.592C852.959 170.312 853.239 169.184 853.799 168.208C854.375 167.216 855.159 166.44 856.151 165.88C857.159 165.32 858.303 165.04 859.583 165.04C860.831 165.04 861.943 165.312 862.919 165.856C863.895 166.4 864.663 167.168 865.223 168.16C865.783 169.152 866.063 170.32 866.063 171.664C866.063 171.792 866.055 171.936 866.039 172.096C866.039 172.256 866.031 172.408 866.015 172.552H855.335V170.56H864.431L863.255 171.184C863.271 170.448 863.119 169.8 862.799 169.24C862.479 168.68 862.039 168.24 861.479 167.92C860.935 167.6 860.303 167.44 859.583 167.44C858.847 167.44 858.199 167.6 857.639 167.92C857.095 168.24 856.663 168.688 856.343 169.264C856.039 169.824 855.887 170.488 855.887 171.256V171.736C855.887 172.504 856.063 173.184 856.415 173.776C856.767 174.368 857.263 174.824 857.903 175.144C858.543 175.464 859.279 175.624 860.111 175.624C860.831 175.624 861.479 175.512 862.055 175.288C862.631 175.064 863.143 174.712 863.591 174.232L865.199 176.08C864.623 176.752 863.895 177.272 863.015 177.64C862.151 177.992 861.159 178.168 860.039 178.168ZM876.448 178.168C875.408 178.168 874.456 177.928 873.592 177.448C872.744 176.968 872.064 176.248 871.552 175.288C871.056 174.312 870.808 173.08 870.808 171.592C870.808 170.088 871.048 168.856 871.528 167.896C872.024 166.936 872.696 166.224 873.544 165.76C874.392 165.28 875.36 165.04 876.448 165.04C877.712 165.04 878.824 165.312 879.784 165.856C880.76 166.4 881.528 167.16 882.088 168.136C882.664 169.112 882.952 170.264 882.952 171.592C882.952 172.92 882.664 174.08 882.088 175.072C881.528 176.048 880.76 176.808 879.784 177.352C878.824 177.896 877.712 178.168 876.448 178.168ZM869.344 182.656V165.184H872.2V168.208L872.104 171.616L872.344 175.024V182.656H869.344ZM876.112 175.6C876.832 175.6 877.472 175.44 878.032 175.12C878.608 174.8 879.064 174.336 879.4 173.728C879.736 173.12 879.904 172.408 879.904 171.592C879.904 170.76 879.736 170.048 879.4 169.456C879.064 168.848 878.608 168.384 878.032 168.064C877.472 167.744 876.832 167.584 876.112 167.584C875.392 167.584 874.744 167.744 874.168 168.064C873.592 168.384 873.136 168.848 872.8 169.456C872.464 170.048 872.296 170.76 872.296 171.592C872.296 172.408 872.464 173.12 872.8 173.728C873.136 174.336 873.592 174.8 874.168 175.12C874.744 175.44 875.392 175.6 876.112 175.6ZM885.938 178V165.184H888.938V173.632L896.018 165.184H898.754V178H895.754V169.552L888.698 178H885.938Z" fill="white"/>
<path d="M1033.79 123V113.72L1049.98 98.744C1051.01 97.7627 1051.75 96.9093 1052.22 96.184C1052.74 95.4587 1053.08 94.8187 1053.25 94.264C1053.42 93.6667 1053.5 93.112 1053.5 92.6C1053.5 91.4907 1053.14 90.6373 1052.42 90.04C1051.69 89.4 1050.6 89.08 1049.15 89.08C1047.83 89.08 1046.57 89.4427 1045.38 90.168C1044.18 90.8507 1043.24 91.8747 1042.56 93.24L1031.17 87.544C1032.79 84.472 1035.22 81.976 1038.46 80.056C1041.71 78.136 1045.74 77.176 1050.56 77.176C1054.1 77.176 1057.24 77.752 1059.97 78.904C1062.7 80.056 1064.83 81.6773 1066.37 83.768C1067.9 85.8587 1068.67 88.3333 1068.67 91.192C1068.67 92.6427 1068.48 94.0933 1068.1 95.544C1067.75 96.9947 1067.03 98.5307 1065.92 100.152C1064.81 101.731 1063.17 103.501 1060.99 105.464L1048.83 116.536L1046.46 111.288H1069.7V123H1033.79ZM1093.08 124.024C1089.11 124.024 1085.59 123.107 1082.52 121.272C1079.49 119.437 1077.1 116.771 1075.35 113.272C1073.65 109.773 1072.79 105.549 1072.79 100.6C1072.79 95.6507 1073.65 91.4267 1075.35 87.928C1077.1 84.4293 1079.49 81.7627 1082.52 79.928C1085.59 78.0933 1089.11 77.176 1093.08 77.176C1097.05 77.176 1100.55 78.0933 1103.58 79.928C1106.65 81.7627 1109.04 84.4293 1110.75 87.928C1112.49 91.4267 1113.37 95.6507 1113.37 100.6C1113.37 105.549 1112.49 109.773 1110.75 113.272C1109.04 116.771 1106.65 119.437 1103.58 121.272C1100.55 123.107 1097.05 124.024 1093.08 124.024ZM1093.08 111.928C1094.06 111.928 1094.94 111.587 1095.71 110.904C1096.47 110.221 1097.07 109.048 1097.5 107.384C1097.97 105.72 1098.2 103.459 1098.2 100.6C1098.2 97.6987 1097.97 95.4373 1097.5 93.816C1097.07 92.152 1096.47 90.9787 1095.71 90.296C1094.94 89.6133 1094.06 89.272 1093.08 89.272C1092.1 89.272 1091.23 89.6133 1090.46 90.296C1089.69 90.9787 1089.07 92.152 1088.6 93.816C1088.17 95.4373 1087.96 97.6987 1087.96 100.6C1087.96 103.459 1088.17 105.72 1088.6 107.384C1089.07 109.048 1089.69 110.221 1090.46 110.904C1091.23 111.587 1092.1 111.928 1093.08 111.928ZM1137.39 124.024C1133.43 124.024 1129.91 123.107 1126.83 121.272C1123.8 119.437 1121.42 116.771 1119.67 113.272C1117.96 109.773 1117.11 105.549 1117.11 100.6C1117.11 95.6507 1117.96 91.4267 1119.67 87.928C1121.42 84.4293 1123.8 81.7627 1126.83 79.928C1129.91 78.0933 1133.43 77.176 1137.39 77.176C1141.36 77.176 1144.86 78.0933 1147.89 79.928C1150.96 81.7627 1153.35 84.4293 1155.06 87.928C1156.81 91.4267 1157.68 95.6507 1157.68 100.6C1157.68 105.549 1156.81 109.773 1155.06 113.272C1153.35 116.771 1150.96 119.437 1147.89 121.272C1144.86 123.107 1141.36 124.024 1137.39 124.024ZM1137.39 111.928C1138.38 111.928 1139.25 111.587 1140.02 110.904C1140.79 110.221 1141.38 109.048 1141.81 107.384C1142.28 105.72 1142.51 103.459 1142.51 100.6C1142.51 97.6987 1142.28 95.4373 1141.81 93.816C1141.38 92.152 1140.79 90.9787 1140.02 90.296C1139.25 89.6133 1138.38 89.272 1137.39 89.272C1136.41 89.272 1135.54 89.6133 1134.77 90.296C1134 90.9787 1133.38 92.152 1132.91 93.816C1132.49 95.4373 1132.27 97.6987 1132.27 100.6C1132.27 103.459 1132.49 105.72 1132.91 107.384C1133.38 109.048 1134 110.221 1134.77 110.904C1135.54 111.587 1136.41 111.928 1137.39 111.928ZM1181.71 124.024C1177.74 124.024 1174.22 123.107 1171.15 121.272C1168.12 119.437 1165.73 116.771 1163.98 113.272C1162.27 109.773 1161.42 105.549 1161.42 100.6C1161.42 95.6507 1162.27 91.4267 1163.98 87.928C1165.73 84.4293 1168.12 81.7627 1171.15 79.928C1174.22 78.0933 1177.74 77.176 1181.71 77.176C1185.67 77.176 1189.17 78.0933 1192.2 79.928C1195.27 81.7627 1197.66 84.4293 1199.37 87.928C1201.12 91.4267 1201.99 95.6507 1201.99 100.6C1201.99 105.549 1201.12 109.773 1199.37 113.272C1197.66 116.771 1195.27 119.437 1192.2 121.272C1189.17 123.107 1185.67 124.024 1181.71 124.024ZM1181.71 111.928C1182.69 111.928 1183.56 111.587 1184.33 110.904C1185.1 110.221 1185.7 109.048 1186.12 107.384C1186.59 105.72 1186.83 103.459 1186.83 100.6C1186.83 97.6987 1186.59 95.4373 1186.12 93.816C1185.7 92.152 1185.1 90.9787 1184.33 90.296C1183.56 89.6133 1182.69 89.272 1181.71 89.272C1180.73 89.272 1179.85 89.6133 1179.08 90.296C1178.31 90.9787 1177.7 92.152 1177.23 93.816C1176.8 95.4373 1176.59 97.6987 1176.59 100.6C1176.59 103.459 1176.8 105.72 1177.23 107.384C1177.7 109.048 1178.31 110.221 1179.08 110.904C1179.85 111.587 1180.73 111.928 1181.71 111.928ZM1217.96 116.28V84.92H1229.48V116.28H1217.96ZM1207.4 106.04V95.16H1240.03V106.04H1207.4Z" fill="white"/>
<path d="M1065.52 178V165.184H1077.8V178H1074.83V167.032L1075.52 167.728H1067.82L1068.52 167.032V178H1065.52ZM1087.56 178.168C1086.25 178.168 1085.08 177.888 1084.06 177.328C1083.04 176.752 1082.23 175.968 1081.64 174.976C1081.04 173.984 1080.75 172.856 1080.75 171.592C1080.75 170.312 1081.04 169.184 1081.64 168.208C1082.23 167.216 1083.04 166.44 1084.06 165.88C1085.08 165.32 1086.25 165.04 1087.56 165.04C1088.89 165.04 1090.07 165.32 1091.09 165.88C1092.13 166.44 1092.94 167.208 1093.52 168.184C1094.11 169.16 1094.4 170.296 1094.4 171.592C1094.4 172.856 1094.11 173.984 1093.52 174.976C1092.94 175.968 1092.13 176.752 1091.09 177.328C1090.07 177.888 1088.89 178.168 1087.56 178.168ZM1087.56 175.6C1088.3 175.6 1088.96 175.44 1089.53 175.12C1090.11 174.8 1090.56 174.336 1090.88 173.728C1091.21 173.12 1091.38 172.408 1091.38 171.592C1091.38 170.76 1091.21 170.048 1090.88 169.456C1090.56 168.848 1090.11 168.384 1089.53 168.064C1088.96 167.744 1088.31 167.584 1087.59 167.584C1086.85 167.584 1086.2 167.744 1085.62 168.064C1085.06 168.384 1084.61 168.848 1084.28 169.456C1083.94 170.048 1083.77 170.76 1083.77 171.592C1083.77 172.408 1083.94 173.12 1084.28 173.728C1084.61 174.336 1085.06 174.8 1085.62 175.12C1086.2 175.44 1086.84 175.6 1087.56 175.6ZM1103.2 178.168C1101.86 178.168 1100.66 177.888 1099.6 177.328C1098.56 176.752 1097.74 175.968 1097.15 174.976C1096.56 173.984 1096.26 172.856 1096.26 171.592C1096.26 170.312 1096.56 169.184 1097.15 168.208C1097.74 167.216 1098.56 166.44 1099.6 165.88C1100.66 165.32 1101.86 165.04 1103.2 165.04C1104.45 165.04 1105.54 165.296 1106.49 165.808C1107.45 166.304 1108.18 167.04 1108.67 168.016L1106.37 169.36C1105.98 168.752 1105.51 168.304 1104.95 168.016C1104.41 167.728 1103.82 167.584 1103.18 167.584C1102.44 167.584 1101.78 167.744 1101.18 168.064C1100.59 168.384 1100.13 168.848 1099.79 169.456C1099.46 170.048 1099.29 170.76 1099.29 171.592C1099.29 172.424 1099.46 173.144 1099.79 173.752C1100.13 174.344 1100.59 174.8 1101.18 175.12C1101.78 175.44 1102.44 175.6 1103.18 175.6C1103.82 175.6 1104.41 175.456 1104.95 175.168C1105.51 174.88 1105.98 174.432 1106.37 173.824L1108.67 175.168C1108.18 176.128 1107.45 176.872 1106.49 177.4C1105.54 177.912 1104.45 178.168 1103.2 178.168ZM1117.1 178.168C1115.68 178.168 1114.43 177.888 1113.36 177.328C1112.3 176.752 1111.48 175.968 1110.89 174.976C1110.31 173.984 1110.02 172.856 1110.02 171.592C1110.02 170.312 1110.3 169.184 1110.86 168.208C1111.44 167.216 1112.22 166.44 1113.21 165.88C1114.22 165.32 1115.37 165.04 1116.65 165.04C1117.89 165.04 1119.01 165.312 1119.98 165.856C1120.96 166.4 1121.73 167.168 1122.29 168.16C1122.85 169.152 1123.13 170.32 1123.13 171.664C1123.13 171.792 1123.12 171.936 1123.1 172.096C1123.1 172.256 1123.09 172.408 1123.08 172.552H1112.4V170.56H1121.49L1120.32 171.184C1120.33 170.448 1120.18 169.8 1119.86 169.24C1119.54 168.68 1119.1 168.24 1118.54 167.92C1118 167.6 1117.37 167.44 1116.65 167.44C1115.91 167.44 1115.26 167.6 1114.7 167.92C1114.16 168.24 1113.73 168.688 1113.41 169.264C1113.1 169.824 1112.95 170.488 1112.95 171.256V171.736C1112.95 172.504 1113.13 173.184 1113.48 173.776C1113.83 174.368 1114.33 174.824 1114.97 175.144C1115.61 175.464 1116.34 175.624 1117.17 175.624C1117.89 175.624 1118.54 175.512 1119.12 175.288C1119.69 175.064 1120.21 174.712 1120.65 174.232L1122.26 176.08C1121.69 176.752 1120.96 177.272 1120.08 177.64C1119.21 177.992 1118.22 178.168 1117.1 178.168ZM1128.58 178V167.008L1129.27 167.728H1124.07V165.184H1136.07V167.728H1130.88L1131.58 167.008V178H1128.58ZM1138.24 178V165.184H1141.24V173.632L1148.32 165.184H1151.06V178H1148.06V169.552L1141 178H1138.24ZM1157.76 178V167.008L1158.45 167.728H1153.25V165.184H1165.25V167.728H1160.06L1160.76 167.008V178H1157.76ZM1172.84 178.168C1171.41 178.168 1170.16 177.888 1169.09 177.328C1168.04 176.752 1167.21 175.968 1166.62 174.976C1166.04 173.984 1165.76 172.856 1165.76 171.592C1165.76 170.312 1166.04 169.184 1166.6 168.208C1167.17 167.216 1167.96 166.44 1168.95 165.88C1169.96 165.32 1171.1 165.04 1172.38 165.04C1173.63 165.04 1174.74 165.312 1175.72 165.856C1176.69 166.4 1177.46 167.168 1178.02 168.16C1178.58 169.152 1178.86 170.32 1178.86 171.664C1178.86 171.792 1178.85 171.936 1178.84 172.096C1178.84 172.256 1178.83 172.408 1178.81 172.552H1168.13V170.56H1177.23L1176.05 171.184C1176.07 170.448 1175.92 169.8 1175.6 169.24C1175.28 168.68 1174.84 168.24 1174.28 167.92C1173.73 167.6 1173.1 167.44 1172.38 167.44C1171.64 167.44 1171 167.6 1170.44 167.92C1169.89 168.24 1169.46 168.688 1169.14 169.264C1168.84 169.824 1168.68 170.488 1168.68 171.256V171.736C1168.68 172.504 1168.86 173.184 1169.21 173.776C1169.56 174.368 1170.06 174.824 1170.7 175.144C1171.34 175.464 1172.08 175.624 1172.91 175.624C1173.63 175.624 1174.28 175.512 1174.85 175.288C1175.43 175.064 1175.94 174.712 1176.39 174.232L1178 176.08C1177.42 176.752 1176.69 177.272 1175.81 177.64C1174.95 177.992 1173.96 178.168 1172.84 178.168ZM1180.1 177.976L1180.25 175.456C1180.36 175.472 1180.46 175.488 1180.56 175.504C1180.66 175.52 1180.74 175.528 1180.82 175.528C1181.32 175.528 1181.7 175.376 1181.98 175.072C1182.25 174.768 1182.45 174.36 1182.58 173.848C1182.72 173.32 1182.82 172.736 1182.86 172.096C1182.93 171.44 1182.98 170.784 1183.01 170.128L1183.22 165.184H1193.59V178H1190.59V166.912L1191.29 167.728H1185.19L1185.84 166.888L1185.67 170.272C1185.62 171.408 1185.53 172.464 1185.38 173.44C1185.26 174.4 1185.05 175.24 1184.76 175.96C1184.49 176.68 1184.1 177.24 1183.61 177.64C1183.13 178.04 1182.51 178.24 1181.76 178.24C1181.52 178.24 1181.26 178.216 1180.97 178.168C1180.7 178.12 1180.41 178.056 1180.1 177.976ZM1197.63 178V165.184H1200.63V173.632L1207.71 165.184H1210.45V178H1207.45V169.552L1200.39 178H1197.63Z" fill="white"/>
<defs>
<filter id="filter0_d_3909_8143" x="827" y="4" width="496" height="251" filterUnits="userSpaceOnUse" color-interpolation-filters="sRGB">
<feFlood flood-opacity="0" result="BackgroundImageFix"/>
<feColorMatrix in="SourceAlpha" type="matrix" values="0 0 0 0 0 0 0 0 0 0 0 0 0 0 0 0 0 0 127 0" result="hardAlpha"/>
<feMorphology radius="16" operator="erode" in="SourceAlpha" result="effect1_dropShadow_3909_8143"/>
<feOffset dx="33"/>
<feGaussianBlur stdDeviation="16.5"/>
<feColorMatrix type="matrix" values="0 0 0 0 0 0 0 0 0 0 0 0 0 0 0 0 0 0 0.13 0"/>
<feBlend mode="normal" in2="BackgroundImageFix" result="effect1_dropShadow_3909_8143"/>
<feBlend mode="normal" in="SourceGraphic" in2="effect1_dropShadow_3909_8143" result="shape"/>
</filter>
<filter id="filter1_d_3909_8143" x="568" y="0" width="479" height="259" filterUnits="userSpaceOnUse" color-interpolation-filters="sRGB">
<feFlood flood-opacity="0" result="BackgroundImageFix"/>
<feColorMatrix in="SourceAlpha" type="matrix" values="0 0 0 0 0 0 0 0 0 0 0 0 0 0 0 0 0 0 127 0" result="hardAlpha"/>
<feMorphology radius="12" operator="erode" in="SourceAlpha" result="effect1_dropShadow_3909_8143"/>
<feOffset dx="33"/>
<feGaussianBlur stdDeviation="16.5"/>
<feColorMatrix type="matrix" values="0 0 0 0 0 0 0 0 0 0 0 0 0 0 0 0 0 0 0.23 0"/>
<feBlend mode="normal" in2="BackgroundImageFix" result="effect1_dropShadow_3909_8143"/>
<feBlend mode="normal" in="SourceGraphic" in2="effect1_dropShadow_3909_8143" result="shape"/>
</filter>
<filter id="filter2_d_3909_8143" x="300" y="1" width="466" height="257" filterUnits="userSpaceOnUse" color-interpolation-filters="sRGB">
<feFlood flood-opacity="0" result="BackgroundImageFix"/>
<feColorMatrix in="SourceAlpha" type="matrix" values="0 0 0 0 0 0 0 0 0 0 0 0 0 0 0 0 0 0 127 0" result="hardAlpha"/>
<feMorphology radius="13" operator="erode" in="SourceAlpha" result="effect1_dropShadow_3909_8143"/>
<feOffset dx="33"/>
<feGaussianBlur stdDeviation="16.5"/>
<feColorMatrix type="matrix" values="0 0 0 0 0 0 0 0 0 0 0 0 0 0 0 0 0 0 0.16 0"/>
<feBlend mode="normal" in2="BackgroundImageFix" result="effect1_dropShadow_3909_8143"/>
<feBlend mode="normal" in="SourceGraphic" in2="effect1_dropShadow_3909_8143" result="shape"/>
</filter>
<filter id="filter3_d_3909_8143" x="167" y="5" width="339" height="257" filterUnits="userSpaceOnUse" color-interpolation-filters="sRGB">
<feFlood flood-opacity="0" result="BackgroundImageFix"/>
<feColorMatrix in="SourceAlpha" type="matrix" values="0 0 0 0 0 0 0 0 0 0 0 0 0 0 0 0 0 0 127 0" result="hardAlpha"/>
<feMorphology radius="14" operator="erode" in="SourceAlpha" result="effect1_dropShadow_3909_8143"/>
<feOffset dx="34" dy="4"/>
<feGaussianBlur stdDeviation="17"/>
<feColorMatrix type="matrix" values="0 0 0 0 0 0 0 0 0 0 0 0 0 0 0 0 0 0 0.14 0"/>
<feBlend mode="normal" in2="BackgroundImageFix" result="effect1_dropShadow_3909_8143"/>
<feBlend mode="normal" in="SourceGraphic" in2="effect1_dropShadow_3909_8143" result="shape"/>
</filter>
<linearGradient id="paint0_linear_3909_8143" x1="39.5" y1="65.9998" x2="1456.5" y2="215.5" gradientUnits="userSpaceOnUse">
<stop stop-color="#D8D8D8"/>
<stop offset="1" stop-color="#CCCCCC"/>
</linearGradient>
<linearGradient id="paint1_linear_3909_8143" x1="775.961" y1="13.5293" x2="928.854" y2="379.047" gradientUnits="userSpaceOnUse">
<stop stop-color="#FF6BDF"/>
<stop offset="1" stop-color="#A400CD"/>
</linearGradient>
<linearGradient id="paint2_linear_3909_8143" x1="568" y1="21" x2="612.976" y2="299.394" gradientUnits="userSpaceOnUse">
<stop stop-color="#5162FF"/>
<stop offset="1" stop-color="#778DFF"/>
</linearGradient>
<linearGradient id="paint3_linear_3909_8143" x1="712.777" y1="21" x2="526.179" y2="394.369" gradientUnits="userSpaceOnUse">
<stop offset="0.422408" stop-color="#EF5DA8"/>
<stop offset="1" stop-color="#FFDA44"/>
</linearGradient>
<linearGradient id="paint4_linear_3909_8143" x1="469.418" y1="11.7048" x2="166.05" y2="330.05" gradientUnits="userSpaceOnUse">
<stop offset="0.317465" stop-color="#5DA0EF"/>
<stop offset="1" stop-color="#44FF78"/>
</linearGradient>
</defs>
</svg>
