<svg width="43" height="42" viewBox="0 0 43 42" fill="none" xmlns="http://www.w3.org/2000/svg">
<g opacity="0.81">
<path d="M11.0489 14.0036C11.4986 14.061 11.9502 14.1088 12.398 14.1758C13.5022 14.3442 14.5509 14.681 15.5134 15.257C16.9888 16.1411 17.9437 17.4328 18.4317 19.067C18.9618 20.841 18.9579 22.6187 18.3188 24.3697C17.3141 27.1196 14.9891 28.8036 12.0593 28.8533C9.81846 28.8916 7.5776 28.8667 5.33674 28.8706C4.33591 28.8725 3.33317 28.8744 2.33234 28.8687C2.21178 28.8687 2.08931 28.8227 1.96875 28.7998C1.96875 28.7577 1.96875 28.7156 1.96875 28.6735C2.05869 28.6409 2.14672 28.5874 2.23857 28.5778C2.4395 28.5567 2.64426 28.5663 2.84711 28.551C3.33508 28.5146 3.82688 28.4898 4.30912 28.4209C4.69567 28.3654 4.8966 28.1319 4.95593 27.7473C4.98463 27.5674 4.99803 27.3856 4.99803 27.2038C4.99994 24.9629 4.99994 22.7202 4.99994 20.4793C4.99994 18.7628 4.99994 17.0463 4.99994 15.3316C4.99994 14.8781 4.80666 14.6064 4.37036 14.482C4.15029 14.4208 3.91683 14.394 3.6891 14.371C3.34848 14.3366 3.00402 14.327 2.6634 14.2906C2.44716 14.2677 2.42228 14.2026 2.51796 13.9998C5.3597 14.0036 8.20527 14.0036 11.0489 14.0036ZM7.52019 21.4897C7.52019 21.5873 7.52019 21.6849 7.52019 21.7844C7.52019 23.8722 7.51828 25.9599 7.51828 28.0477C7.51828 28.3386 7.57568 28.4209 7.81871 28.4209C9.07979 28.4247 10.3409 28.4572 11.5962 28.2965C12.4822 28.1836 13.307 27.9233 13.9768 27.2995C14.5088 26.8038 14.9757 26.247 15.2838 25.5887C16.3784 23.2426 16.5659 20.8429 15.6301 18.3934C14.8628 16.388 13.4697 15.1192 11.336 14.6963C10.1706 14.4667 8.99369 14.5164 7.8168 14.5222C7.58908 14.5241 7.52019 14.6351 7.52019 14.9126C7.52019 17.1037 7.52019 19.2967 7.52019 21.4897Z" fill="#808080"/>
<path d="M39.8037 23.0839C39.7922 23.0916 39.7788 23.0973 39.7731 23.1088C39.4669 23.6963 39.0593 23.7269 38.6804 23.1892C38.4163 22.816 38.2192 22.7605 37.8652 23.0399C37.5724 23.2715 37.3007 23.5413 37.0595 23.8283C36.8108 24.1249 36.7055 24.4943 36.7055 24.8846C36.7055 25.9142 36.7055 26.9437 36.7208 27.9713C36.7266 28.3847 36.8988 28.5531 37.3026 28.6028C37.5169 28.6296 37.735 28.6373 37.9494 28.6679C38.001 28.6755 38.047 28.7406 38.0948 28.7808C38.0431 28.8038 37.9915 28.8478 37.9417 28.8478C36.6175 28.8516 35.2952 28.8516 33.9709 28.8459C33.9116 28.8459 33.8523 28.7865 33.793 28.754C33.8485 28.7234 33.902 28.6717 33.9614 28.6641C34.1566 28.6411 34.3537 28.6449 34.5469 28.6181C34.9966 28.5531 35.1708 28.3617 35.1861 27.9063C35.1995 27.535 35.1899 27.1638 35.188 26.7925C35.1842 25.7209 35.1803 24.6493 35.1784 23.5776C35.1765 23.1145 34.9737 22.9595 34.5201 23.082C34.3651 23.1241 34.2159 23.1892 34.059 23.2217C33.9843 23.237 33.8982 23.1949 33.8178 23.1796C33.8753 23.1203 33.9231 23.0342 33.9939 23.0055C34.3594 22.8638 34.7383 22.7548 35.0981 22.6036C35.4961 22.4352 35.8807 22.2323 36.273 22.0448C36.5869 21.8936 36.7036 21.9625 36.7055 22.3051C36.7093 22.7682 36.7074 23.2294 36.7093 23.6924C36.7093 23.7039 36.7208 23.7154 36.7438 23.7613C36.7878 23.6963 36.8222 23.6427 36.8605 23.591C37.1571 23.193 37.4384 22.7816 37.7542 22.4007C37.9723 22.1386 38.2766 21.9702 38.6191 21.9185C39.1626 21.8362 39.5281 22.062 39.8075 22.6246C39.8037 22.7758 39.8037 22.9308 39.8037 23.0839Z" fill="#808080"/>
<path d="M28.9107 21.6922C29.6111 21.6884 30.277 21.809 30.8894 22.1324C31.9553 22.6969 32.4414 23.6422 32.6117 24.7904C32.9676 27.1997 31.2683 28.6942 29.3241 28.9621C28.75 29.0406 28.1759 29.0348 27.6114 28.9066C26.1666 28.5756 25.3475 27.6494 25.0758 26.2122C24.7352 24.4134 25.5599 22.7868 27.1999 22.0175C27.7453 21.7611 28.329 21.7075 28.9107 21.6922ZM31.0195 25.4812C31.01 25.3396 31.0042 25.0889 30.9755 24.8382C30.8932 24.1206 30.7076 23.4394 30.256 22.8519C29.481 21.8396 27.7128 21.7248 26.9856 23.1504C26.7005 23.7073 26.5952 24.3005 26.5895 24.9148C26.5818 25.8716 26.7713 26.7787 27.3109 27.5881C27.598 28.0187 27.9673 28.3555 28.4763 28.499C29.2954 28.7306 30.2426 28.2598 30.6521 27.4255C30.9353 26.8495 31.0195 26.2294 31.0195 25.4812Z" fill="#808080"/>
<path d="M22.7026 25.1231C22.7026 26.0187 22.7026 26.9162 22.7026 27.8118C22.7026 28.3973 22.8729 28.583 23.4661 28.6365C23.6192 28.6499 23.7742 28.6442 23.9273 28.6652C23.9828 28.6729 24.0326 28.7303 24.0842 28.7648C24.0307 28.7935 23.9771 28.8451 23.9235 28.8451C23.3838 28.8509 22.8442 28.849 22.3065 28.849C21.5716 28.849 20.8349 28.847 20.1001 28.847C20.0446 28.847 19.9852 28.8528 19.9336 28.8394C19.8991 28.8298 19.8475 28.7839 19.8513 28.7667C19.8609 28.7284 19.8972 28.671 19.9297 28.6652C20.0312 28.648 20.1383 28.6461 20.2417 28.6461C21.0148 28.6404 21.2004 28.4567 21.2004 27.6893C21.2004 26.3172 21.1985 24.9432 21.1985 23.5712C21.1985 23.0985 20.9899 22.9473 20.5268 23.0794C20.3527 23.1291 20.1785 23.1846 20.0006 23.2229C19.9527 23.2324 19.8915 23.1903 19.8379 23.1712C19.8723 23.1195 19.8953 23.0411 19.9431 23.0181C20.056 22.9645 20.1804 22.9339 20.301 22.9014C20.9401 22.7272 21.5391 22.4613 22.1132 22.134C22.6241 21.8432 22.7083 21.9006 22.7064 22.4766C22.7007 23.3587 22.7026 24.2409 22.7026 25.1231Z" fill="#808080"/>
<path d="M22.8233 18.4336C22.8194 18.9752 22.3869 19.3981 21.8416 19.3943C21.3019 19.3904 20.8752 18.9541 20.8809 18.4107C20.8867 17.8691 21.3211 17.4443 21.8645 17.45C22.4042 17.4538 22.8271 17.8882 22.8233 18.4336Z" fill="#808080"/>
</g>
</svg>
