<svg width="29" height="28" viewBox="0 0 29 28" fill="none" xmlns="http://www.w3.org/2000/svg">
<path d="M14.1574 0.209961C6.48442 0.209961 0.263672 6.4307 0.263672 14.1037C0.263672 21.7767 6.48442 27.9975 14.1574 27.9975C21.8305 27.9975 28.0512 21.7796 28.0512 14.1037C28.0512 6.42783 21.829 0.209961 14.1574 0.209961ZM19.8154 14.1224C19.3779 14.4391 18.8784 14.6593 18.3502 14.7687L18.2638 14.786V18.5397H15.5205V14.5917L15.0944 14.4909C14.5792 14.3714 14.0466 14.2491 13.5731 14.2203C13.468 14.216 13.3629 14.2174 13.2579 14.2261L13.1571 14.2347V21.5033H10.4181V15.1458L9.57176 15.7474L7.98851 13.5078L8.86937 12.8789C9.30692 12.5622 9.80637 12.342 10.3346 12.2326L10.421 12.2153V7.47997H13.1643V11.487L13.2766 11.4827C13.3399 11.4798 13.4047 11.4798 13.468 11.4798C13.5616 11.4784 13.6551 11.4827 13.7487 11.4928H13.7573C14.3086 11.5259 14.8569 11.6094 15.3938 11.7418L15.5233 11.7735V7.45262H18.2667V11.8555L19.113 11.2539L20.6991 13.492L19.8154 14.1224Z" fill="#0A0A0A"/>
</svg>
