<svg width="25" height="25" viewBox="0 0 25 25" fill="none" xmlns="http://www.w3.org/2000/svg">
<path d="M18.6948 0.669067H6.63265C3.30177 0.669067 0.601562 3.36928 0.601562 6.70015V18.7623C0.601562 22.0932 3.30177 24.7934 6.63265 24.7934H18.6948C22.0257 24.7934 24.7259 22.0932 24.7259 18.7623V6.70015C24.7259 3.36928 22.0257 0.669067 18.6948 0.669067Z" fill="#606060"/>
<path d="M17.4882 11.9709C17.637 12.9748 17.4656 14 16.9982 14.9008C16.5307 15.8016 15.7912 16.5321 14.8847 16.9884C13.9782 17.4446 12.9509 17.6034 11.949 17.4422C10.947 17.281 10.0214 16.8079 9.3038 16.0903C8.5862 15.3727 8.11314 14.4471 7.95191 13.4452C7.79068 12.4432 7.94949 11.4159 8.40576 10.5094C8.86202 9.60292 9.59251 8.86338 10.4933 8.39597C11.3941 7.92856 12.4194 7.75709 13.4232 7.90595C14.4472 8.0578 15.3952 8.53495 16.1272 9.26693C16.8592 9.99892 17.3363 10.9469 17.4882 11.9709Z" stroke="#F4F5F7" stroke-width="2.40599" stroke-linecap="round" stroke-linejoin="round"/>
<path d="M19.2969 6.09729H19.3098" stroke="#F4F5F7" stroke-width="2.40599" stroke-linecap="round" stroke-linejoin="round"/>
</svg>
