<svg width="24" height="25" viewBox="0 0 24 25" fill="none" xmlns="http://www.w3.org/2000/svg">
<g clip-path="url(#clip0_3953_401)">
<path fill-rule="evenodd" clip-rule="evenodd" d="M22.111 24.2987H1.97188C1.00656 24.2987 0.224609 23.5471 0.224609 22.6202V2.57886C0.224609 1.65326 1.00656 0.901611 1.97188 0.901611H22.111C23.0751 0.901611 23.8571 1.65326 23.8571 2.57886V22.6202C23.8571 23.5471 23.0751 24.2987 22.111 24.2987ZM4.32227 19.6886H7.8026V9.53394H4.32227V19.6886ZM6.08372 4.64001C4.89245 4.64001 4.11523 5.39753 4.11523 6.39465C4.11523 7.36806 4.86998 8.14928 6.03758 8.14928H6.06006C7.2738 8.14928 8.02854 7.36806 8.02854 6.39465C8.00725 5.39753 7.2738 4.64001 6.08372 4.64001ZM20.3517 13.8673C20.3517 10.7474 18.634 9.29602 16.3449 9.29602C14.4971 9.29602 13.6714 10.2807 13.2089 10.9733V9.53438H9.72852C9.77465 10.4878 9.72852 19.689 9.72852 19.689H13.2089V14.0183C13.2089 13.7163 13.2313 13.4118 13.3236 13.1959C13.5744 12.5894 14.1481 11.9617 15.1087 11.9617C16.3686 11.9617 16.8714 12.8926 16.8714 14.2579V19.689H20.3517V13.8673ZM13.1855 11.0063C13.1926 10.9951 13.2021 10.9839 13.2092 10.9727V11.0063H13.1855Z" fill="#606060"/>
</g>
<defs>
<clipPath id="clip0_3953_401">
<rect width="23.6597" height="23.6597" fill="white" transform="translate(0.212891 0.901367)"/>
</clipPath>
</defs>
</svg>
