<svg width="24" height="24" viewBox="0 0 24 24" fill="none" xmlns="http://www.w3.org/2000/svg">
<g clip-path="url(#clip0_3953_412)">
<path d="M11.9565 0.231203C9.27516 0.229503 6.67748 1.16483 4.61265 2.87545C2.54781 4.58607 1.14564 6.96445 0.648567 9.59934C0.151497 12.2342 0.590781 14.96 1.89046 17.3053C3.19015 19.6507 5.26852 21.4681 7.76622 22.4435C7.6656 21.5335 7.5736 20.1348 7.80503 19.1415C8.01491 18.2431 9.15341 13.4246 9.15341 13.4246C9.15341 13.4246 8.80984 12.736 8.80984 11.7183C8.80984 10.1183 9.73703 8.9252 10.8913 8.9252C11.8717 8.9252 12.3461 9.6612 12.3461 10.5453C12.3461 11.5314 11.7179 13.0063 11.393 14.3733C11.1228 15.5176 11.968 16.452 13.0965 16.452C15.1406 16.452 16.7118 14.2957 16.7118 11.185C16.7118 8.43214 14.7323 6.50733 11.9077 6.50733C8.63591 6.50733 6.71541 8.96114 6.71541 11.4969C6.71541 12.4859 7.09634 13.5453 7.57072 14.1218C7.61157 14.1652 7.64046 14.2185 7.65457 14.2765C7.66868 14.3344 7.66752 14.395 7.65122 14.4524C7.56353 14.8146 7.36947 15.5966 7.3321 15.7562C7.28178 15.9661 7.16534 16.0106 6.94685 15.91C5.50935 15.2416 4.61235 13.1414 4.61235 11.4538C4.61235 7.82695 7.24872 4.49627 12.211 4.49627C16.2 4.49627 19.3007 7.3382 19.3007 11.1375C19.3007 15.1007 16.8009 18.2905 13.3337 18.2905C12.1678 18.2905 11.0725 17.6853 10.6973 16.9695L9.98141 19.7036C9.72122 20.7026 9.01972 21.9547 8.5511 22.718C10.1323 23.2069 11.8004 23.3487 13.4415 23.1338C15.0825 22.9189 16.6578 22.3523 18.0598 21.4727C19.4618 20.5931 20.6574 19.4213 21.565 18.0372C22.4725 16.6532 23.0707 15.0896 23.3185 13.4531C23.5663 11.8167 23.458 10.1461 23.0009 8.55541C22.5439 6.9647 21.7489 5.49139 20.6702 4.23613C19.5915 2.98086 18.2546 1.97322 16.7507 1.28204C15.2469 0.590852 13.6116 0.232412 11.9565 0.231203Z" fill="#606060"/>
</g>
<defs>
<clipPath id="clip0_3953_412">
<rect width="23" height="23" fill="white" transform="translate(0.457031 0.231201)"/>
</clipPath>
</defs>
</svg>
