<svg width="102" height="34" viewBox="0 0 102 34" fill="none" xmlns="http://www.w3.org/2000/svg">
<path d="M7.87151 17V8.14418H11.9958C13.0248 8.14418 13.826 8.34238 14.3995 8.73878C14.973 9.13519 15.2598 9.70027 15.2598 10.434C15.2598 11.1594 14.9899 11.7245 14.4501 12.1293C13.9103 12.5257 13.1934 12.7239 12.2994 12.7239L12.5398 12.1926C13.535 12.1926 14.3067 12.3908 14.855 12.7872C15.4032 13.1836 15.6773 13.7571 15.6773 14.5077C15.6773 15.2837 15.3821 15.8951 14.7917 16.3421C14.2098 16.7807 13.3579 17 12.2362 17H7.87151ZM9.90835 15.4819H12.1603C12.6326 15.4819 12.991 15.3891 13.2356 15.2035C13.4802 15.018 13.6025 14.7312 13.6025 14.3433C13.6025 13.9722 13.4802 13.698 13.2356 13.5209C12.991 13.3354 12.6326 13.2426 12.1603 13.2426H9.90835V15.4819ZM9.90835 11.813H11.8187C12.2657 11.813 12.6031 11.7245 12.8308 11.5473C13.0585 11.3618 13.1724 11.0919 13.1724 10.7377C13.1724 10.3834 13.0585 10.1178 12.8308 9.94065C12.6031 9.7551 12.2657 9.66232 11.8187 9.66232H9.90835V11.813ZM17.1463 17V10.1937H19.1072V14.242L22.4218 10.1937H24.231V17H22.27V12.9516L18.9681 17H17.1463ZM30.8091 16.1144V11.813H28.5825L28.5445 12.686C28.5276 13.0486 28.5066 13.3944 28.4813 13.7233C28.456 14.0523 28.4054 14.3517 28.3294 14.6216C28.262 14.883 28.1608 15.1065 28.0258 15.2921C27.8909 15.4692 27.7095 15.5915 27.4818 15.659L25.5335 15.3806C25.7781 15.3806 25.9763 15.309 26.1281 15.1656C26.28 15.0138 26.398 14.8071 26.4824 14.5457C26.5667 14.2758 26.63 13.9722 26.6721 13.6348C26.7143 13.289 26.7438 12.9263 26.7607 12.5468L26.8493 10.1937H32.7827V16.1144H30.8091ZM25.3058 18.4675V15.3806H33.7568V18.4675H31.9224V17H27.1402V18.4675H25.3058ZM34.9988 17V10.1937H36.9597V14.242L40.2743 10.1937H42.0834V17H40.1225V12.9516L36.8206 17H34.9988ZM47.5635 17V10.1937H54.3319V17H52.3583V11.3702L52.8011 11.813H49.0816L49.5244 11.3702V17H47.5635ZM59.4122 17.1012C58.6869 17.1012 58.0416 16.9494 57.4766 16.6458C56.9199 16.3421 56.4771 15.9289 56.1482 15.406C55.8277 14.8746 55.6674 14.2716 55.6674 13.5968C55.6674 12.9137 55.8277 12.3106 56.1482 11.7877C56.4771 11.2564 56.9199 10.8431 57.4766 10.5479C58.0416 10.2443 58.6869 10.0925 59.4122 10.0925C60.1291 10.0925 60.7701 10.2443 61.3352 10.5479C61.9003 10.8431 62.343 11.2522 62.6635 11.7751C62.984 12.298 63.1443 12.9052 63.1443 13.5968C63.1443 14.2716 62.984 14.8746 62.6635 15.406C62.343 15.9289 61.9003 16.3421 61.3352 16.6458C60.7701 16.9494 60.1291 17.1012 59.4122 17.1012ZM59.4122 15.4819C59.7411 15.4819 60.0363 15.406 60.2978 15.2541C60.5592 15.1023 60.7659 14.8873 60.9177 14.6089C61.0695 14.3222 61.1454 13.9848 61.1454 13.5968C61.1454 13.2004 61.0695 12.8631 60.9177 12.5847C60.7659 12.3064 60.5592 12.0913 60.2978 11.9395C60.0363 11.7877 59.7411 11.7118 59.4122 11.7118C59.0833 11.7118 58.7881 11.7877 58.5266 11.9395C58.2652 12.0913 58.0543 12.3064 57.894 12.5847C57.7422 12.8631 57.6663 13.2004 57.6663 13.5968C57.6663 13.9848 57.7422 14.3222 57.894 14.6089C58.0543 14.8873 58.2652 15.1023 58.5266 15.2541C58.7881 15.406 59.0833 15.4819 59.4122 15.4819ZM64.5017 17V10.1937H67.9808C68.8326 10.1937 69.4989 10.3497 69.9797 10.6618C70.4604 10.9654 70.7008 11.3955 70.7008 11.9522C70.7008 12.5088 70.4731 12.9474 70.0176 13.2679C69.5706 13.58 68.976 13.736 68.2338 13.736L68.4362 13.2806C69.2628 13.2806 69.8785 13.4324 70.2833 13.736C70.6966 14.0396 70.9032 14.4824 70.9032 15.0644C70.9032 15.6632 70.6755 16.1355 70.22 16.4813C69.7646 16.8271 69.0688 17 68.1326 17H64.5017ZM66.3108 15.659H67.9681C68.3308 15.659 68.6007 15.5999 68.7778 15.4819C68.9634 15.3553 69.0561 15.1656 69.0561 14.9126C69.0561 14.6511 68.9718 14.4613 68.8031 14.3433C68.6344 14.2167 68.3688 14.1535 68.0061 14.1535H66.3108V15.659ZM66.3108 12.9896H67.8037C68.1495 12.9896 68.4067 12.9263 68.5754 12.7998C68.7525 12.6733 68.8411 12.492 68.8411 12.2558C68.8411 12.0112 68.7525 11.8299 68.5754 11.7118C68.4067 11.5937 68.1495 11.5347 67.8037 11.5347H66.3108V12.9896ZM75.6989 17.1012C74.9229 17.1012 74.2398 16.9494 73.6494 16.6458C73.0674 16.3421 72.6162 15.9289 72.2957 15.406C71.9752 14.8746 71.815 14.2716 71.815 13.5968C71.815 12.9137 71.971 12.3106 72.2831 11.7877C72.6036 11.2564 73.0379 10.8431 73.5861 10.5479C74.1344 10.2443 74.7543 10.0925 75.4459 10.0925C76.1122 10.0925 76.711 10.2358 77.2423 10.5226C77.7821 10.8009 78.208 11.2058 78.5201 11.7371C78.8322 12.26 78.9882 12.8884 78.9882 13.6221C78.9882 13.698 78.984 13.7866 78.9755 13.8878C78.9671 13.9806 78.9587 14.0691 78.9502 14.1535H73.4217V13.0022H77.9128L77.1538 13.3438C77.1538 12.9896 77.0821 12.6817 76.9387 12.4203C76.7953 12.1588 76.5971 11.9564 76.3441 11.813C76.0911 11.6612 75.7959 11.5853 75.4585 11.5853C75.1211 11.5853 74.8217 11.6612 74.5603 11.813C74.3073 11.9564 74.1091 12.163 73.9657 12.4329C73.8223 12.6944 73.7506 13.0064 73.7506 13.3691V13.6727C73.7506 14.0438 73.8307 14.3728 73.991 14.6595C74.1597 14.9379 74.3916 15.1529 74.6868 15.3047C74.9904 15.4481 75.3447 15.5198 75.7495 15.5198C76.1122 15.5198 76.4284 15.465 76.6983 15.3553C76.9767 15.2457 77.2297 15.0812 77.4574 14.862L78.5074 16.0006C78.1954 16.3548 77.8032 16.6289 77.3309 16.8229C76.8586 17.0084 76.3146 17.1012 75.6989 17.1012ZM85.3211 17L83.0439 13.774L84.6506 12.8251L87.6489 17H85.3211ZM80.501 17V10.1937H82.4746V17H80.501ZM81.8926 14.4192V12.8378H84.2711V14.4192H81.8926ZM84.8404 13.8246L82.9933 13.6221L85.3844 10.1937H87.4845L84.8404 13.8246ZM82.5758 9.32074L84.2837 7.49897H86.4091L84.1192 9.32074H82.5758ZM91.7352 17.1012C90.9593 17.1012 90.2761 16.9494 89.6858 16.6458C89.1038 16.3421 88.6526 15.9289 88.3321 15.406C88.0116 14.8746 87.8513 14.2716 87.8513 13.5968C87.8513 12.9137 88.0074 12.3106 88.3194 11.7877C88.6399 11.2564 89.0743 10.8431 89.6225 10.5479C90.1707 10.2443 90.7906 10.0925 91.4822 10.0925C92.1485 10.0925 92.7473 10.2358 93.2787 10.5226C93.8185 10.8009 94.2444 11.2058 94.5565 11.7371C94.8685 12.26 95.0246 12.8884 95.0246 13.6221C95.0246 13.698 95.0203 13.7866 95.0119 13.8878C95.0035 13.9806 94.995 14.0691 94.9866 14.1535H89.458V13.0022H93.9492L93.1901 13.3438C93.1901 12.9896 93.1184 12.6817 92.9751 12.4203C92.8317 12.1588 92.6335 11.9564 92.3805 11.813C92.1274 11.6612 91.8322 11.5853 91.4949 11.5853C91.1575 11.5853 90.8581 11.6612 90.5966 11.813C90.3436 11.9564 90.1454 12.163 90.002 12.4329C89.8587 12.6944 89.787 13.0064 89.787 13.3691V13.6727C89.787 14.0438 89.8671 14.3728 90.0273 14.6595C90.196 14.9379 90.428 15.1529 90.7232 15.3047C91.0268 15.4481 91.381 15.5198 91.7859 15.5198C92.1485 15.5198 92.4648 15.465 92.7347 15.3553C93.013 15.2457 93.266 15.0812 93.4938 14.862L94.5438 16.0006C94.2317 16.3548 93.8396 16.6289 93.3672 16.8229C92.8949 17.0084 92.3509 17.1012 91.7352 17.1012Z" fill="url(#paint0_linear_3917_8164)"/>
<path d="M29.9793 23.7212L1.14453 23.7212" stroke="url(#paint1_linear_3917_8164)" stroke-width="1.18605" stroke-linecap="round" stroke-linejoin="round"/>
<path d="M100.466 23.7212L71.6309 23.7212" stroke="url(#paint2_linear_3917_8164)" stroke-width="1.18605" stroke-linecap="round" stroke-linejoin="round"/>
<path d="M41.4334 25.0026C41.2565 24.8699 41.0055 24.9058 40.8727 25.0827C40.74 25.2597 40.7759 25.5107 40.9528 25.6434L50.5577 32.8471C50.5804 32.8649 50.6047 32.8799 50.6302 32.8922C50.7418 32.9464 50.8708 32.9446 50.9793 32.8922C51.0047 32.8799 51.029 32.8649 51.0517 32.8471L60.6566 25.6434C60.8336 25.5107 60.8694 25.2597 60.7367 25.0827C60.604 24.9058 60.353 24.8699 60.176 25.0026L50.8047 32.0311L41.4334 25.0026Z" fill="url(#paint3_linear_3917_8164)"/>
<path fill-rule="evenodd" clip-rule="evenodd" d="M60.176 25.0026C60.353 24.8699 60.604 24.9058 60.7367 25.0827C60.8694 25.2597 60.8336 25.5107 60.6566 25.6434L51.0517 32.8471C51.029 32.8649 51.0047 32.8799 50.9793 32.8922C50.8708 32.9446 50.7418 32.9464 50.6302 32.8922C50.6047 32.8799 50.5804 32.8649 50.5577 32.8471L40.9528 25.6434C40.7759 25.5107 40.74 25.2597 40.8727 25.0827C41.0055 24.9058 41.2565 24.8699 41.4334 25.0026L50.8047 32.0311L60.176 25.0026ZM50.8047 30.6962L42.0742 24.1483C41.4254 23.6617 40.505 23.7932 40.0184 24.442C39.5318 25.0907 39.6633 26.0112 40.3121 26.4978L49.9107 33.6967C49.9909 33.7583 50.0765 33.8108 50.1656 33.8538C50.5774 34.053 51.0486 34.0448 51.4439 33.8538C51.533 33.8108 51.6185 33.7583 51.6988 33.6967L61.2974 26.4978C61.9462 26.0112 62.0777 25.0908 61.5911 24.442C61.1045 23.7932 60.1841 23.6617 59.5353 24.1483L50.8047 30.6962Z" fill="url(#paint4_linear_3917_8164)"/>
<defs>
<linearGradient id="paint0_linear_3917_8164" x1="81.5509" y1="2.94505" x2="53.8403" y2="58.3103" gradientUnits="userSpaceOnUse">
<stop stop-color="#212121"/>
<stop offset="0.741398" stop-color="#1D403E"/>
</linearGradient>
<linearGradient id="paint1_linear_3917_8164" x1="25.4018" y1="23.8439" x2="25.2168" y2="26.7168" gradientUnits="userSpaceOnUse">
<stop stop-color="#212121"/>
<stop offset="0.741398" stop-color="#1D403E"/>
</linearGradient>
<linearGradient id="paint2_linear_3917_8164" x1="95.8881" y1="23.8439" x2="95.7032" y2="26.7168" gradientUnits="userSpaceOnUse">
<stop stop-color="#212121"/>
<stop offset="0.741398" stop-color="#1D403E"/>
</linearGradient>
<linearGradient id="paint3_linear_3917_8164" x1="58.3669" y1="25.0995" x2="43.9247" y2="42.0951" gradientUnits="userSpaceOnUse">
<stop stop-color="#212121"/>
<stop offset="0.741398" stop-color="#1D403E"/>
</linearGradient>
<linearGradient id="paint4_linear_3917_8164" x1="58.3669" y1="25.0995" x2="43.9247" y2="42.0951" gradientUnits="userSpaceOnUse">
<stop stop-color="#212121"/>
<stop offset="0.741398" stop-color="#1D403E"/>
</linearGradient>
</defs>
</svg>
