<svg width="16" height="20" viewBox="0 0 16 20" fill="none" xmlns="http://www.w3.org/2000/svg">
<path d="M8.0365 0.754883C6.04205 0.757236 4.12995 1.55057 2.71966 2.96086C1.30937 4.37116 0.516033 6.28325 0.51368 8.2777C0.511291 9.90757 1.04368 11.4932 2.02919 12.7914C2.02919 12.7914 2.23435 13.0615 2.26786 13.1005L8.0365 19.9039L13.8079 13.0971C13.838 13.0608 14.0438 12.7914 14.0438 12.7914L14.0445 12.7893C15.0295 11.4917 15.5617 9.90682 15.5593 8.2777C15.557 6.28325 14.7636 4.37116 13.3533 2.96086C11.943 1.55057 10.031 0.757236 8.0365 0.754883ZM8.0365 11.0133C7.49545 11.0133 6.96656 10.8528 6.5167 10.5522C6.06684 10.2517 5.71621 9.82442 5.50916 9.32456C5.30211 8.8247 5.24794 8.27467 5.35349 7.74402C5.45904 7.21337 5.71958 6.72594 6.10216 6.34336C6.48473 5.96078 6.97217 5.70025 7.50282 5.59469C8.03346 5.48914 8.5835 5.54331 9.08336 5.75036C9.58322 5.95741 10.0105 6.30804 10.311 6.7579C10.6116 7.20776 10.7721 7.73666 10.7721 8.2777C10.7712 9.00294 10.4827 9.69822 9.96984 10.211C9.45702 10.7239 8.76174 11.0124 8.0365 11.0133Z" fill="#9B9B9B"/>
</svg>
