<svg width="20" height="20" viewBox="0 0 20 20" fill="none" xmlns="http://www.w3.org/2000/svg">
<path d="M9.8577 19.9039C7.96405 19.9039 6.11291 19.3423 4.5384 18.2903C2.96388 17.2382 1.73669 15.7429 1.01202 13.9934C0.287352 12.2439 0.0977447 10.3188 0.467179 8.46149C0.836613 6.60422 1.74849 4.89821 3.08751 3.55919C4.42653 2.22017 6.13254 1.30829 7.98981 0.938858C9.84708 0.569424 11.7722 0.759031 13.5217 1.4837C15.2712 2.20837 16.7665 3.43556 17.8186 5.01008C18.8707 6.58459 19.4322 8.43573 19.4322 10.3294C19.4322 12.8687 18.4235 15.304 16.6279 17.0996C14.8323 18.8951 12.397 19.9039 9.8577 19.9039ZM9.8577 2.12267C8.23457 2.12267 6.64788 2.60399 5.2983 3.50575C3.94871 4.40752 2.89684 5.68923 2.27569 7.18881C1.65454 8.68839 1.49202 10.3385 1.80868 11.9304C2.12534 13.5224 2.90695 14.9847 4.05468 16.1324C5.20241 17.2801 6.66471 18.0617 8.25665 18.3784C9.8486 18.6951 11.4987 18.5325 12.9983 17.9114C14.4979 17.2902 15.7796 16.2384 16.6813 14.8888C17.5831 13.5392 18.0644 11.9525 18.0644 10.3294C18.0644 8.15283 17.1998 6.06542 15.6607 4.52636C14.1217 2.9873 12.0343 2.12267 9.8577 2.12267Z" fill="#9B9B9B"/>
<path d="M12.9968 14.4327L9.17383 10.6097V4.17432H10.5416V10.0421L13.9611 13.4684L12.9968 14.4327Z" fill="#9B9B9B"/>
</svg>
