<svg width="51" height="50" viewBox="0 0 51 50" fill="none" xmlns="http://www.w3.org/2000/svg">
<path d="M25.4994 3.125C21.4474 3.125 17.5615 4.73462 14.6963 7.59976C11.8312 10.4649 10.2216 14.3509 10.2216 18.4028C10.1974 20.6232 10.672 22.8208 11.6105 24.8333C12.0754 25.6899 12.595 26.5157 13.166 27.3056C14.2786 28.797 15.211 30.4147 15.9438 32.125C16.448 33.9353 16.7233 35.8017 16.7633 37.6806H19.541C19.4984 35.4755 19.1668 33.2855 18.5549 31.1667C17.7533 29.2328 16.7178 27.4044 15.4716 25.7222C14.9675 25.0368 14.5038 24.3226 14.0827 23.5833C13.3365 21.9501 12.9663 20.1703 12.9994 18.375C12.9994 15.0469 14.3214 11.8551 16.6748 9.50179C19.0281 7.14847 22.2199 5.82639 25.548 5.82639C28.8761 5.82639 32.0679 7.14847 34.4212 9.50179C36.7745 11.8551 38.0966 15.0469 38.0966 18.375C38.0991 20.1882 37.6908 21.9784 36.9021 23.6111C36.4811 24.3504 36.0173 25.0646 35.5133 25.75C34.2739 27.4242 33.2431 29.2431 32.4438 31.1667C31.8295 33.2945 31.4979 35.494 31.4577 37.7083H34.2355C34.2754 35.8295 34.5507 33.9631 35.0549 32.1528C35.7877 30.4425 36.7201 28.8247 37.8327 27.3333C38.4059 26.5257 38.9255 25.6812 39.3883 24.8056C40.3267 22.793 40.8013 20.5955 40.7771 18.375C40.7698 14.3279 39.1569 10.4491 36.2926 7.58993C33.4282 4.7308 29.5465 3.12499 25.4994 3.125Z" fill="#068BE9"/>
<path d="M26.3748 21.5418C26.1665 21.334 25.8843 21.2173 25.5901 21.2173C25.2958 21.2173 25.0136 21.334 24.8053 21.5418L20.6387 25.7084L24.6109 30.0557V37.7501H26.8887V29.1668L23.7776 25.764L26.4026 23.139C26.5079 23.0335 26.5909 22.908 26.6467 22.7698C26.7025 22.6315 26.7299 22.4835 26.7273 22.3345C26.7247 22.1855 26.6922 22.0385 26.6316 21.9023C26.5711 21.7661 26.4837 21.6435 26.3748 21.5418Z" fill="#068BE9"/>
<path d="M33.6395 40.4863H17.3201C17.0254 40.4863 16.7428 40.6034 16.5344 40.8118C16.326 41.0201 16.209 41.3028 16.209 41.5974C16.209 41.8921 16.326 42.1747 16.5344 42.3831C16.7428 42.5915 17.0254 42.7086 17.3201 42.7086H33.6395C33.9342 42.7086 34.2168 42.5915 34.4252 42.3831C34.6336 42.1747 34.7507 41.8921 34.7507 41.5974C34.7507 41.3028 34.6336 41.0201 34.4252 40.8118C34.2168 40.6034 33.9342 40.4863 33.6395 40.4863Z" fill="#068BE9"/>
<path d="M31.0562 44.6528H19.9451C19.6504 44.6528 19.3678 44.7699 19.1594 44.9783C18.951 45.1866 18.834 45.4693 18.834 45.7639C18.834 46.0586 18.951 46.3412 19.1594 46.5496C19.3678 46.758 19.6504 46.8751 19.9451 46.8751H31.0562C31.3509 46.8751 31.6335 46.758 31.8419 46.5496C32.0503 46.3412 32.1673 46.0586 32.1673 45.7639C32.1673 45.4693 32.0503 45.1866 31.8419 44.9783C31.6335 44.7699 31.3509 44.6528 31.0562 44.6528Z" fill="#068BE9"/>
<path d="M24.556 15.1248L20.7643 18.9164C20.5728 19.1278 20.4699 19.4047 20.4769 19.6898C20.4839 19.975 20.6003 20.2465 20.802 20.4482C21.0037 20.6498 21.2752 20.7662 21.5603 20.7733C21.8455 20.7803 22.1224 20.6774 22.3337 20.4859L26.1254 16.6664C26.2369 16.5654 26.3268 16.4427 26.3895 16.3059C26.4522 16.169 26.4864 16.0209 26.4901 15.8704C26.4938 15.7199 26.4669 15.5703 26.411 15.4305C26.3551 15.2907 26.2714 15.1638 26.165 15.0574C26.0586 14.9509 25.9316 14.8672 25.7919 14.8114C25.6521 14.7555 25.5025 14.7286 25.352 14.7323C25.2015 14.736 25.0534 14.7702 24.9165 14.8329C24.7797 14.8956 24.657 14.9854 24.556 15.097V15.1248Z" fill="#068BE9"/>
</svg>
