<svg width="51" height="50" viewBox="0 0 51 50" fill="none" xmlns="http://www.w3.org/2000/svg">
<path d="M42.6875 37.5C41.9915 37.5032 41.3052 37.6634 40.6797 37.9688L33.9609 31.25H28.625V34.375H32.6656L38.4703 40.1797C38.1647 40.8051 38.004 41.4914 38 42.1875C38 43.1146 38.2749 44.0209 38.79 44.7917C39.3051 45.5626 40.0371 46.1634 40.8937 46.5182C41.7502 46.873 42.6927 46.9658 43.602 46.7849C44.5113 46.6041 45.3465 46.1576 46.0021 45.5021C46.6576 44.8465 47.1041 44.0113 47.2849 43.102C47.4658 42.1927 47.373 41.2502 47.0182 40.3937C46.6634 39.5371 46.0626 38.8051 45.2917 38.29C44.5209 37.7749 43.6146 37.5 42.6875 37.5ZM42.6875 43.75C42.3785 43.75 42.0764 43.6584 41.8194 43.4867C41.5625 43.315 41.3622 43.071 41.2439 42.7854C41.1257 42.4999 41.0947 42.1858 41.155 41.8827C41.2153 41.5796 41.3641 41.3012 41.5826 41.0826C41.8012 40.8641 42.0796 40.7153 42.3827 40.655C42.6858 40.5947 42.9999 40.6257 43.2854 40.7439C43.571 40.8622 43.815 41.0625 43.9867 41.3194C44.1584 41.5764 44.25 41.8785 44.25 42.1875C44.25 42.6019 44.0854 42.9993 43.7924 43.2924C43.4993 43.5854 43.1019 43.75 42.6875 43.75ZM42.6875 20.3125C41.7212 20.3154 40.7795 20.6173 39.9916 21.1768C39.2038 21.7364 38.6085 22.5261 38.2875 23.4375H28.625V26.5625H38.2875C38.5754 27.3706 39.0798 28.084 39.7457 28.6248C40.4115 29.1656 41.2133 29.5129 42.0632 29.6289C42.9132 29.7449 43.7786 29.625 44.5651 29.2824C45.3515 28.9397 46.0286 28.3875 46.5224 27.6861C47.0162 26.9846 47.3077 26.161 47.3651 25.3051C47.4224 24.4492 47.2434 23.594 46.8476 22.8329C46.4518 22.0719 45.8544 21.4343 45.1207 20.9898C44.3871 20.5453 43.5453 20.311 42.6875 20.3125ZM42.6875 26.5625C42.3785 26.5625 42.0764 26.4709 41.8194 26.2992C41.5625 26.1275 41.3622 25.8835 41.2439 25.5979C41.1257 25.3124 41.0947 24.9983 41.155 24.6952C41.2153 24.3921 41.3641 24.1137 41.5826 23.8951C41.8012 23.6766 42.0796 23.5278 42.3827 23.4675C42.6858 23.4072 42.9999 23.4382 43.2854 23.5564C43.571 23.6747 43.815 23.875 43.9867 24.1319C44.1584 24.3889 44.25 24.691 44.25 25C44.25 25.4144 44.0854 25.8118 43.7924 26.1049C43.4993 26.3979 43.1019 26.5625 42.6875 26.5625ZM42.6875 3.125C41.4447 3.12624 40.2531 3.6205 39.3743 4.49931C38.4955 5.37812 38.0012 6.56968 38 7.8125C38.0053 8.56103 38.1919 9.29712 38.5437 9.95782L32.6813 15.625H28.625V18.75H33.9437L40.8188 12.1063C41.4574 12.3847 42.1501 12.5173 42.8464 12.4943C43.5428 12.4713 44.2252 12.2933 44.8441 11.9733C45.463 11.6533 46.0027 11.1993 46.424 10.6444C46.8453 10.0895 47.1375 9.44762 47.2795 8.76551C47.4214 8.0834 47.4094 7.37822 47.2445 6.70132C47.0795 6.02441 46.7656 5.39281 46.3258 4.8525C45.8859 4.3122 45.3311 3.87677 44.7017 3.57793C44.0723 3.2791 43.3842 3.12436 42.6875 3.125ZM42.6875 9.375C42.3785 9.375 42.0764 9.28336 41.8194 9.11167C41.5625 8.93998 41.3622 8.69595 41.2439 8.41044C41.1257 8.12494 41.0947 7.81077 41.155 7.50767C41.2153 7.20458 41.3641 6.92617 41.5826 6.70765C41.8012 6.48913 42.0796 6.34031 42.3827 6.28002C42.6858 6.21974 42.9999 6.25068 43.2854 6.36894C43.571 6.4872 43.815 6.68747 43.9867 6.94442C44.1584 7.20138 44.25 7.50347 44.25 7.8125C44.25 8.2269 44.0854 8.62433 43.7924 8.91736C43.4993 9.21038 43.1019 9.375 42.6875 9.375Z" fill="#068BE9"/>
<path d="M28.625 9.375H31.75V6.25H28.625C27.7346 6.25297 26.8552 6.44733 26.0464 6.8199C25.2377 7.19246 24.5184 7.73454 23.9375 8.40937C23.3566 7.73454 22.6374 7.19246 21.8286 6.8199C21.0198 6.44733 20.1404 6.25297 19.25 6.25H17.6875C13.9592 6.25414 10.3847 7.73704 7.74838 10.3734C5.11204 13.0097 3.62914 16.5842 3.625 20.3125V29.6875C3.62914 33.4158 5.11204 36.9903 7.74838 39.6266C10.3847 42.263 13.9592 43.7459 17.6875 43.75H19.25C20.1404 43.747 21.0198 43.5527 21.8286 43.1801C22.6374 42.8075 23.3566 42.2655 23.9375 41.5906C24.5184 42.2655 25.2377 42.8075 26.0464 43.1801C26.8552 43.5527 27.7346 43.747 28.625 43.75H31.75V40.625H28.625C27.7965 40.6242 27.0021 40.2947 26.4162 39.7088C25.8303 39.1229 25.5008 38.3285 25.5 37.5V12.5C25.5008 11.6715 25.8303 10.8771 26.4162 10.2912C27.0021 9.70533 27.7965 9.37583 28.625 9.375ZM19.25 40.625H17.6875C15.0601 40.6203 12.522 39.6706 10.5368 37.9494C8.5517 36.2282 7.25195 33.8503 6.875 31.25H9.875V28.125H6.75V21.875H11.4375C12.6803 21.8738 13.8719 21.3795 14.7507 20.5007C15.6295 19.6219 16.1238 18.4303 16.125 17.1875V14.0625H13V17.1875C13 17.6019 12.8354 17.9993 12.5424 18.2924C12.2493 18.5854 11.8519 18.75 11.4375 18.75H6.875C7.25195 16.1497 8.5517 13.7718 10.5368 12.0506C12.522 10.3294 15.0601 9.3797 17.6875 9.375H19.25C20.0785 9.37583 20.8729 9.70533 21.4588 10.2912C22.0447 10.8771 22.3742 11.6715 22.375 12.5V18.75H19.25V21.875H22.375V28.125H19.25C18.0072 28.1262 16.8156 28.6205 15.9368 29.4993C15.058 30.3781 14.5637 31.5697 14.5625 32.8125V35.9375H17.6875V32.8125C17.6875 32.3981 17.8521 32.0007 18.1451 31.7076C18.4382 31.4146 18.8356 31.25 19.25 31.25H22.375V37.5C22.3742 38.3285 22.0447 39.1229 21.4588 39.7088C20.8729 40.2947 20.0785 40.6242 19.25 40.625Z" fill="#068BE9"/>
</svg>
