<svg width="51" height="50" viewBox="0 0 51 50" fill="none" xmlns="http://www.w3.org/2000/svg">
<path d="M25.4675 7.47516C26.9441 7.47516 28.3602 8.06173 29.4043 9.10584C30.4484 10.1499 31.035 11.5661 31.035 13.0427C31.035 14.5192 30.4484 15.9354 29.4043 16.9795C28.3602 18.0236 26.9441 18.6102 25.4675 18.6102C23.9906 18.6102 22.5741 18.0234 21.5298 16.9791C20.4855 15.9348 19.8988 14.5183 19.8988 13.0414C19.8988 11.5645 20.4855 10.148 21.5298 9.10371C22.5741 8.05936 23.9906 7.47266 25.4675 7.47266V7.47516ZM25.4675 9.97516C24.6539 9.97516 23.8737 10.2983 23.2985 10.8736C22.7232 11.4489 22.4 12.2291 22.4 13.0427C22.4 13.8562 22.7232 14.6364 23.2985 15.2117C23.8737 15.787 24.6539 16.1102 25.4675 16.1102C26.2814 16.1102 27.0619 15.7868 27.6374 15.2113C28.2129 14.6358 28.5363 13.8553 28.5363 13.0414C28.5363 12.2275 28.2129 11.447 27.6374 10.8715C27.0619 10.296 26.2814 9.97266 25.4675 9.97266V9.97516ZM8.04 28.7502C8.04 29.0817 7.9083 29.3996 7.67388 29.634C7.43946 29.8685 7.12152 30.0002 6.79 30.0002C6.45848 30.0002 6.14054 29.8685 5.90612 29.634C5.6717 29.3996 5.54 29.0817 5.54 28.7502V22.5352C5.54008 21.9228 5.76489 21.3318 6.17179 20.8742C6.57869 20.4166 7.13937 20.1243 7.7475 20.0527L8.04 20.0352H14.9325C14.5687 20.6628 14.3469 21.3626 14.2825 22.0852L14.2625 22.5352H8.0375V28.7502H8.04ZM44.225 30.0002C44.5565 30.0002 44.8745 29.8685 45.1089 29.634C45.3433 29.3996 45.475 29.0817 45.475 28.7502V22.5352L45.4575 22.2452C45.3864 21.6366 45.0943 21.0753 44.6367 20.6679C44.179 20.2605 43.5877 20.0353 42.975 20.0352H36.015C36.38 20.6677 36.615 21.3927 36.67 22.1627L36.6825 22.5377H42.975V28.7502C42.975 29.0817 43.1067 29.3996 43.3411 29.634C43.5755 29.8685 43.8935 30.0002 44.225 30.0002ZM31.685 20.0352C32.2977 20.0353 32.889 20.2605 33.3467 20.6679C33.8043 21.0753 34.0964 21.6366 34.1675 22.2452L34.1825 22.5352V28.7502C34.1825 29.0817 34.0508 29.3996 33.8164 29.634C33.582 29.8685 33.264 30.0002 32.9325 30.0002C32.601 30.0002 32.283 29.8685 32.0486 29.634C31.8142 29.3996 31.6825 29.0817 31.6825 28.7502V22.5352H19.2625V28.7502C19.2625 29.0817 19.1308 29.3996 18.8964 29.634C18.662 29.8685 18.344 30.0002 18.0125 30.0002C17.681 30.0002 17.363 29.8685 17.1286 29.634C16.8942 29.3996 16.7625 29.0817 16.7625 28.7502V22.5352C16.7626 21.9228 16.9874 21.3318 17.3943 20.8742C17.8012 20.4166 18.3619 20.1243 18.97 20.0527L19.2625 20.0352H31.6825H31.685ZM42.72 13.8277C42.72 12.5589 42.216 11.3422 41.3189 10.445C40.4217 9.54791 39.205 9.04391 37.9362 9.04391C36.6675 9.04391 35.4508 9.54791 34.5536 10.445C33.6565 11.3422 33.1525 12.5589 33.1525 13.8277C33.1525 15.0964 33.6565 16.3132 34.5536 17.2103C35.4508 18.1074 36.6675 18.6114 37.9362 18.6114C39.205 18.6114 40.4217 18.1074 41.3189 17.2103C42.216 16.3132 42.72 15.0964 42.72 13.8277ZM35.6525 13.8277C35.6525 13.222 35.8931 12.6411 36.3214 12.2128C36.7497 11.7845 37.3306 11.5439 37.9362 11.5439C38.5419 11.5439 39.1228 11.7845 39.5511 12.2128C39.9794 12.6411 40.22 13.222 40.22 13.8277C40.22 14.4333 39.9794 15.0142 39.5511 15.4425C39.1228 15.8708 38.5419 16.1114 37.9362 16.1114C37.3306 16.1114 36.7497 15.8708 36.3214 15.4425C35.8931 15.0142 35.6525 14.4333 35.6525 13.8277ZM13.04 9.04266C14.3087 9.04266 15.5255 9.54666 16.4226 10.4438C17.3197 11.3409 17.8238 12.5577 17.8238 13.8264C17.8238 15.0951 17.3197 16.3119 16.4226 17.209C15.5255 18.1062 14.3087 18.6102 13.04 18.6102C11.7713 18.6102 10.5545 18.1062 9.65738 17.209C8.76025 16.3119 8.25625 15.0951 8.25625 13.8264C8.25625 12.5577 8.76025 11.3409 9.65738 10.4438C10.5545 9.54666 11.7713 9.04266 13.04 9.04266ZM13.04 11.5427C12.4343 11.5427 11.8534 11.7833 11.4251 12.2116C10.9969 12.6398 10.7562 13.2207 10.7562 13.8264C10.7562 14.4321 10.9969 15.013 11.4251 15.4413C11.8534 15.8695 12.4343 16.1102 13.04 16.1102C13.6457 16.1102 14.2266 15.8695 14.6549 15.4413C15.0831 15.013 15.3238 14.4321 15.3238 13.8264C15.3238 13.2207 15.0831 12.6398 14.6549 12.2116C14.2266 11.7833 13.6457 11.5427 13.04 11.5427ZM6.75 32.5002C6.41848 32.5002 6.10054 32.6319 5.86612 32.8663C5.6317 33.1007 5.5 33.4186 5.5 33.7502V36.2502C5.5 37.9078 6.15848 39.4975 7.33058 40.6696C8.50269 41.8417 10.0924 42.5002 11.75 42.5002H39.25C40.9076 42.5002 42.4973 41.8417 43.6694 40.6696C44.8415 39.4975 45.5 37.9078 45.5 36.2502V33.7502C45.5 33.4186 45.3683 33.1007 45.1339 32.8663C44.8995 32.6319 44.5815 32.5002 44.25 32.5002H6.75ZM8 36.2502V35.0002H43V36.2502C43 37.2447 42.6049 38.1985 41.9016 38.9018C41.1984 39.6051 40.2446 40.0002 39.25 40.0002H11.75C10.7554 40.0002 9.80161 39.6051 9.09835 38.9018C8.39509 38.1985 8 37.2447 8 36.2502Z" fill="#068BE9"/>
</svg>
