<svg width="51" height="50" viewBox="0 0 51 50" fill="none" xmlns="http://www.w3.org/2000/svg">
<path fill-rule="evenodd" clip-rule="evenodd" d="M45.7844 3.125C34.5406 3.1375 24.9906 9.32188 18.175 15.625H5.1875L3.625 17.1875V26.5625L4.08437 27.6688L7.18125 30.7656L7.18437 30.7938L19.6844 43.2938L19.7125 43.2969L22.8344 46.4188L23.9375 46.875H33.3125L34.875 45.3125V32.3312C41.1844 25.525 47.3625 15.9781 47.35 4.6875L45.7844 3.125ZM6.75 18.75H15.0094C12.4868 21.3983 10.1628 24.2289 8.05625 27.2188L6.75 25.9187V18.75ZM24.5625 43.75L23.25 42.4281C26.2459 40.3333 29.0819 38.0186 31.7344 35.5031V43.75H24.5625ZM20.9906 40.175L10.3 29.4906C13.4 25 26.6844 7.35938 44.1812 6.3C43.1625 23.8375 25.4719 37.0906 20.9906 40.175ZM13 46.875V43.75H6.75V37.5H3.625V46.875H13ZM34.0875 22.9156C34.7779 21.8813 35.0291 20.615 34.7859 19.3955C34.5427 18.1759 33.825 17.1029 32.7906 16.4125C31.7563 15.7221 30.49 15.4709 29.2705 15.7141C28.0509 15.9573 26.9779 16.675 26.2875 17.7094C25.5971 18.7433 25.3457 20.0091 25.5886 21.2284C25.8316 22.4477 26.5489 23.5205 27.5828 24.2109C28.6167 24.9013 29.8826 25.1527 31.1019 24.9098C32.3211 24.6669 33.394 23.9496 34.0844 22.9156H34.0875Z" fill="#068BE9"/>
</svg>
