<svg width="16" height="17" viewBox="0 0 16 17" fill="none" xmlns="http://www.w3.org/2000/svg">
<mask id="mask0_3953_3217" style="mask-type:alpha" maskUnits="userSpaceOnUse" x="9" y="1" width="7" height="7">
<path fill-rule="evenodd" clip-rule="evenodd" d="M9.57031 1.83398H15.263V7.52253H9.57031V1.83398Z" fill="white"/>
</mask>
<g mask="url(#mask0_3953_3217)">
<path fill-rule="evenodd" clip-rule="evenodd" d="M14.7628 7.52253C14.5114 7.52253 14.2954 7.33386 14.2668 7.07853C14.0141 4.82786 12.2661 3.08119 10.0148 2.83119C9.74078 2.80053 9.54278 2.55386 9.57344 2.27919C9.60344 2.00519 9.84811 1.80319 10.1254 1.83786C12.8441 2.13986 14.9554 4.24853 15.2601 6.96653C15.2908 7.24119 15.0934 7.48853 14.8194 7.51919C14.8008 7.52119 14.7814 7.52253 14.7628 7.52253Z" fill="#123D7E"/>
</g>
<path fill-rule="evenodd" clip-rule="evenodd" d="M12.4029 7.52927C12.1683 7.52927 11.9596 7.36394 11.9129 7.12527C11.7209 6.13861 10.9603 5.37794 9.97493 5.18661C9.7036 5.13394 9.52693 4.87194 9.5796 4.60061C9.63227 4.32927 9.89893 4.15194 10.1656 4.20527C11.5529 4.47461 12.6243 5.54527 12.8943 6.93327C12.9469 7.20527 12.7703 7.46727 12.4996 7.51994C12.4669 7.52594 12.4349 7.52927 12.4029 7.52927Z" fill="#123D7E"/>
<mask id="mask1_3953_3217" style="mask-type:alpha" maskUnits="userSpaceOnUse" x="1" y="1" width="14" height="15">
<path fill-rule="evenodd" clip-rule="evenodd" d="M1.33398 1.8335H15.0008V15.5005H1.33398V1.8335Z" fill="white"/>
</mask>
<g mask="url(#mask1_3953_3217)">
<path fill-rule="evenodd" clip-rule="evenodd" d="M2.90672 3.87453C2.90805 3.87453 2.87472 3.90919 2.83272 3.95053C2.67139 4.10719 2.33739 4.43319 2.33405 5.11519C2.32872 6.06919 2.95605 7.84053 5.97672 10.8605C8.98272 13.8659 10.7514 14.5005 11.7081 14.5005H11.7221C12.4041 14.4965 12.7294 14.1625 12.8861 14.0019C12.9334 13.9532 12.9721 13.9165 12.9994 13.8945C13.6641 13.2259 14.0041 12.7292 14.0007 12.4099C13.9967 12.0845 13.5921 11.7005 13.0327 11.1679C12.8547 10.9992 12.6614 10.8145 12.4574 10.6105C11.9281 10.0832 11.6674 10.1732 11.0907 10.3759C10.2941 10.6552 9.20272 11.0379 7.50205 9.33586C5.80072 7.63519 6.18205 6.54386 6.46005 5.74653C6.66139 5.17053 6.75339 4.90853 6.22472 4.37919C6.01805 4.17253 5.83205 3.97653 5.66072 3.79653C5.13139 3.24053 4.74939 2.83853 4.42605 2.83386H4.42072C4.10139 2.83386 3.60539 3.17519 2.90339 3.87719C2.90539 3.87519 2.90605 3.87453 2.90672 3.87453ZM11.708 15.5005C10.0467 15.5005 7.88071 14.1779 5.27004 11.5679C2.64871 8.94719 1.32404 6.77452 1.33404 5.10986C1.34004 4.00986 1.91671 3.44652 2.13337 3.23519C2.14471 3.22119 2.18337 3.18319 2.19671 3.16986C3.15337 2.21319 3.81071 1.81986 4.43871 1.83386C5.18337 1.84386 5.71404 2.40186 6.38537 3.10786C6.55137 3.28186 6.73071 3.47186 6.93137 3.67186C7.90404 4.64519 7.62737 5.43919 7.40404 6.07652C7.16137 6.77186 6.95137 7.37186 8.20871 8.62919C9.46604 9.88652 10.0654 9.67652 10.76 9.43186C11.398 9.20919 12.19 8.93052 13.1647 9.90386C13.3627 10.1019 13.5494 10.2792 13.7227 10.4439C14.4314 11.1185 14.9914 11.6512 15.0007 12.3979C15.008 13.0339 14.6214 13.6832 13.6667 14.6379L13.244 14.3512L13.602 14.6999C13.3907 14.9165 12.8287 15.4939 11.728 15.5005H11.708Z" fill="#123D7E"/>
</g>
</svg>
